<?xml version="1.0" encoding="utf-8" standalone="no"?>
<!DOCTYPE svg PUBLIC "-//W3C//DTD SVG 1.1//EN"
  "http://www.w3.org/Graphics/SVG/1.1/DTD/svg11.dtd">
<!-- Created with matplotlib (http://matplotlib.org/) -->
<svg height="633pt" version="1.1" viewBox="0 0 921 633" width="921pt" xmlns="http://www.w3.org/2000/svg" xmlns:xlink="http://www.w3.org/1999/xlink">
 <defs>
  <style type="text/css">
*{stroke-linecap:butt;stroke-linejoin:round;}
  </style>
 </defs>
 <g id="figure_1">
  <g id="patch_1">
   <path d="M 0 633.6 
L 921.6 633.6 
L 921.6 0 
L 0 0 
z
" style="fill:#ffffff;"/>
  </g>
  <g id="axes_1">
   <g id="patch_2">
    <path d="M 115.2 554.4 
L 829.44 554.4 
L 829.44 76.032 
L 115.2 76.032 
z
" style="fill:#ffffff;"/>
   </g>
   <g id="matplotlib.axis_1">
    <g id="xtick_1">
     <g id="line2d_1">
      <defs>
       <path d="M 0 0 
L 0 3.5 
" id="m637159193b" style="stroke:#000000;stroke-width:1.6;"/>
      </defs>
      <g>
       <use style="stroke:#000000;stroke-width:1.6;" x="147.665455" xlink:href="#m637159193b" y="554.4"/>
      </g>
     </g>
     <g id="text_1">
      <!-- 0.0 -->
      <defs>
       <path d="M 31.78125 66.40625 
Q 24.171875 66.40625 20.328125 58.90625 
Q 16.5 51.421875 16.5 36.375 
Q 16.5 21.390625 20.328125 13.890625 
Q 24.171875 6.390625 31.78125 6.390625 
Q 39.453125 6.390625 43.28125 13.890625 
Q 47.125 21.390625 47.125 36.375 
Q 47.125 51.421875 43.28125 58.90625 
Q 39.453125 66.40625 31.78125 66.40625 
z
M 31.78125 74.21875 
Q 44.046875 74.21875 50.515625 64.515625 
Q 56.984375 54.828125 56.984375 36.375 
Q 56.984375 17.96875 50.515625 8.265625 
Q 44.046875 -1.421875 31.78125 -1.421875 
Q 19.53125 -1.421875 13.0625 8.265625 
Q 6.59375 17.96875 6.59375 36.375 
Q 6.59375 54.828125 13.0625 64.515625 
Q 19.53125 74.21875 31.78125 74.21875 
z
" id="DejaVuSans-30"/>
       <path d="M 10.6875 12.40625 
L 21 12.40625 
L 21 0 
L 10.6875 0 
z
" id="DejaVuSans-2e"/>
      </defs>
      <g transform="translate(134.942955 581.2575)scale(0.16 -0.16)">
       <use xlink:href="#DejaVuSans-30"/>
       <use x="63.623047" xlink:href="#DejaVuSans-2e"/>
       <use x="95.410156" xlink:href="#DejaVuSans-30"/>
      </g>
     </g>
    </g>
    <g id="xtick_2">
     <g id="line2d_2">
      <g>
       <use style="stroke:#000000;stroke-width:1.6;" x="280.177514" xlink:href="#m637159193b" y="554.4"/>
      </g>
     </g>
     <g id="text_2">
      <!-- 0.2 -->
      <defs>
       <path d="M 19.1875 8.296875 
L 53.609375 8.296875 
L 53.609375 0 
L 7.328125 0 
L 7.328125 8.296875 
Q 12.9375 14.109375 22.625 23.890625 
Q 32.328125 33.6875 34.8125 36.53125 
Q 39.546875 41.84375 41.421875 45.53125 
Q 43.3125 49.21875 43.3125 52.78125 
Q 43.3125 58.59375 39.234375 62.25 
Q 35.15625 65.921875 28.609375 65.921875 
Q 23.96875 65.921875 18.8125 64.3125 
Q 13.671875 62.703125 7.8125 59.421875 
L 7.8125 69.390625 
Q 13.765625 71.78125 18.9375 73 
Q 24.125 74.21875 28.421875 74.21875 
Q 39.75 74.21875 46.484375 68.546875 
Q 53.21875 62.890625 53.21875 53.421875 
Q 53.21875 48.921875 51.53125 44.890625 
Q 49.859375 40.875 45.40625 35.40625 
Q 44.1875 33.984375 37.640625 27.21875 
Q 31.109375 20.453125 19.1875 8.296875 
z
" id="DejaVuSans-32"/>
      </defs>
      <g transform="translate(267.455014 581.2575)scale(0.16 -0.16)">
       <use xlink:href="#DejaVuSans-30"/>
       <use x="63.623047" xlink:href="#DejaVuSans-2e"/>
       <use x="95.410156" xlink:href="#DejaVuSans-32"/>
      </g>
     </g>
    </g>
    <g id="xtick_3">
     <g id="line2d_3">
      <g>
       <use style="stroke:#000000;stroke-width:1.6;" x="412.689573" xlink:href="#m637159193b" y="554.4"/>
      </g>
     </g>
     <g id="text_3">
      <!-- 0.4 -->
      <defs>
       <path d="M 37.796875 64.3125 
L 12.890625 25.390625 
L 37.796875 25.390625 
z
M 35.203125 72.90625 
L 47.609375 72.90625 
L 47.609375 25.390625 
L 58.015625 25.390625 
L 58.015625 17.1875 
L 47.609375 17.1875 
L 47.609375 0 
L 37.796875 0 
L 37.796875 17.1875 
L 4.890625 17.1875 
L 4.890625 26.703125 
z
" id="DejaVuSans-34"/>
      </defs>
      <g transform="translate(399.967073 581.2575)scale(0.16 -0.16)">
       <use xlink:href="#DejaVuSans-30"/>
       <use x="63.623047" xlink:href="#DejaVuSans-2e"/>
       <use x="95.410156" xlink:href="#DejaVuSans-34"/>
      </g>
     </g>
    </g>
    <g id="xtick_4">
     <g id="line2d_4">
      <g>
       <use style="stroke:#000000;stroke-width:1.6;" x="545.201633" xlink:href="#m637159193b" y="554.4"/>
      </g>
     </g>
     <g id="text_4">
      <!-- 0.6 -->
      <defs>
       <path d="M 33.015625 40.375 
Q 26.375 40.375 22.484375 35.828125 
Q 18.609375 31.296875 18.609375 23.390625 
Q 18.609375 15.53125 22.484375 10.953125 
Q 26.375 6.390625 33.015625 6.390625 
Q 39.65625 6.390625 43.53125 10.953125 
Q 47.40625 15.53125 47.40625 23.390625 
Q 47.40625 31.296875 43.53125 35.828125 
Q 39.65625 40.375 33.015625 40.375 
z
M 52.59375 71.296875 
L 52.59375 62.3125 
Q 48.875 64.0625 45.09375 64.984375 
Q 41.3125 65.921875 37.59375 65.921875 
Q 27.828125 65.921875 22.671875 59.328125 
Q 17.53125 52.734375 16.796875 39.40625 
Q 19.671875 43.65625 24.015625 45.921875 
Q 28.375 48.1875 33.59375 48.1875 
Q 44.578125 48.1875 50.953125 41.515625 
Q 57.328125 34.859375 57.328125 23.390625 
Q 57.328125 12.15625 50.6875 5.359375 
Q 44.046875 -1.421875 33.015625 -1.421875 
Q 20.359375 -1.421875 13.671875 8.265625 
Q 6.984375 17.96875 6.984375 36.375 
Q 6.984375 53.65625 15.1875 63.9375 
Q 23.390625 74.21875 37.203125 74.21875 
Q 40.921875 74.21875 44.703125 73.484375 
Q 48.484375 72.75 52.59375 71.296875 
z
" id="DejaVuSans-36"/>
      </defs>
      <g transform="translate(532.479133 581.2575)scale(0.16 -0.16)">
       <use xlink:href="#DejaVuSans-30"/>
       <use x="63.623047" xlink:href="#DejaVuSans-2e"/>
       <use x="95.410156" xlink:href="#DejaVuSans-36"/>
      </g>
     </g>
    </g>
    <g id="xtick_5">
     <g id="line2d_5">
      <g>
       <use style="stroke:#000000;stroke-width:1.6;" x="677.713692" xlink:href="#m637159193b" y="554.4"/>
      </g>
     </g>
     <g id="text_5">
      <!-- 0.8 -->
      <defs>
       <path d="M 31.78125 34.625 
Q 24.75 34.625 20.71875 30.859375 
Q 16.703125 27.09375 16.703125 20.515625 
Q 16.703125 13.921875 20.71875 10.15625 
Q 24.75 6.390625 31.78125 6.390625 
Q 38.8125 6.390625 42.859375 10.171875 
Q 46.921875 13.96875 46.921875 20.515625 
Q 46.921875 27.09375 42.890625 30.859375 
Q 38.875 34.625 31.78125 34.625 
z
M 21.921875 38.8125 
Q 15.578125 40.375 12.03125 44.71875 
Q 8.5 49.078125 8.5 55.328125 
Q 8.5 64.0625 14.71875 69.140625 
Q 20.953125 74.21875 31.78125 74.21875 
Q 42.671875 74.21875 48.875 69.140625 
Q 55.078125 64.0625 55.078125 55.328125 
Q 55.078125 49.078125 51.53125 44.71875 
Q 48 40.375 41.703125 38.8125 
Q 48.828125 37.15625 52.796875 32.3125 
Q 56.78125 27.484375 56.78125 20.515625 
Q 56.78125 9.90625 50.3125 4.234375 
Q 43.84375 -1.421875 31.78125 -1.421875 
Q 19.734375 -1.421875 13.25 4.234375 
Q 6.78125 9.90625 6.78125 20.515625 
Q 6.78125 27.484375 10.78125 32.3125 
Q 14.796875 37.15625 21.921875 38.8125 
z
M 18.3125 54.390625 
Q 18.3125 48.734375 21.84375 45.5625 
Q 25.390625 42.390625 31.78125 42.390625 
Q 38.140625 42.390625 41.71875 45.5625 
Q 45.3125 48.734375 45.3125 54.390625 
Q 45.3125 60.0625 41.71875 63.234375 
Q 38.140625 66.40625 31.78125 66.40625 
Q 25.390625 66.40625 21.84375 63.234375 
Q 18.3125 60.0625 18.3125 54.390625 
z
" id="DejaVuSans-38"/>
      </defs>
      <g transform="translate(664.991192 581.2575)scale(0.16 -0.16)">
       <use xlink:href="#DejaVuSans-30"/>
       <use x="63.623047" xlink:href="#DejaVuSans-2e"/>
       <use x="95.410156" xlink:href="#DejaVuSans-38"/>
      </g>
     </g>
    </g>
    <g id="xtick_6">
     <g id="line2d_6">
      <g>
       <use style="stroke:#000000;stroke-width:1.6;" x="810.225751" xlink:href="#m637159193b" y="554.4"/>
      </g>
     </g>
     <g id="text_6">
      <!-- 1.0 -->
      <defs>
       <path d="M 12.40625 8.296875 
L 28.515625 8.296875 
L 28.515625 63.921875 
L 10.984375 60.40625 
L 10.984375 69.390625 
L 28.421875 72.90625 
L 38.28125 72.90625 
L 38.28125 8.296875 
L 54.390625 8.296875 
L 54.390625 0 
L 12.40625 0 
z
" id="DejaVuSans-31"/>
      </defs>
      <g transform="translate(797.503251 581.2575)scale(0.16 -0.16)">
       <use xlink:href="#DejaVuSans-31"/>
       <use x="63.623047" xlink:href="#DejaVuSans-2e"/>
       <use x="95.410156" xlink:href="#DejaVuSans-30"/>
      </g>
     </g>
    </g>
    <g id="text_7">
     <!-- z -->
     <defs>
      <path d="M 5.515625 54.6875 
L 48.1875 54.6875 
L 48.1875 46.484375 
L 14.40625 7.171875 
L 48.1875 7.171875 
L 48.1875 0 
L 4.296875 0 
L 4.296875 8.203125 
L 38.09375 47.515625 
L 5.515625 47.515625 
z
" id="DejaVuSans-7a"/>
     </defs>
     <g transform="translate(467.701375 601.95825)scale(0.176 -0.176)">
      <use xlink:href="#DejaVuSans-7a"/>
     </g>
    </g>
   </g>
   <g id="matplotlib.axis_2">
    <g id="ytick_1">
     <g id="line2d_7">
      <defs>
       <path d="M 0 0 
L -3.5 0 
" id="m67d90a6117" style="stroke:#000000;stroke-width:1.6;"/>
      </defs>
      <g>
       <use style="stroke:#000000;stroke-width:1.6;" x="115.2" xlink:href="#m67d90a6117" y="501.8715"/>
      </g>
     </g>
     <g id="text_8">
      <!-- 0.2 -->
      <g transform="translate(75.055 507.95025)scale(0.16 -0.16)">
       <use xlink:href="#DejaVuSans-30"/>
       <use x="63.623047" xlink:href="#DejaVuSans-2e"/>
       <use x="95.410156" xlink:href="#DejaVuSans-32"/>
      </g>
     </g>
    </g>
    <g id="ytick_2">
     <g id="line2d_8">
      <g>
       <use style="stroke:#000000;stroke-width:1.6;" x="115.2" xlink:href="#m67d90a6117" y="400.847625"/>
      </g>
     </g>
     <g id="text_9">
      <!-- 0.4 -->
      <g transform="translate(75.055 406.926375)scale(0.16 -0.16)">
       <use xlink:href="#DejaVuSans-30"/>
       <use x="63.623047" xlink:href="#DejaVuSans-2e"/>
       <use x="95.410156" xlink:href="#DejaVuSans-34"/>
      </g>
     </g>
    </g>
    <g id="ytick_3">
     <g id="line2d_9">
      <g>
       <use style="stroke:#000000;stroke-width:1.6;" x="115.2" xlink:href="#m67d90a6117" y="299.82375"/>
      </g>
     </g>
     <g id="text_10">
      <!-- 0.6 -->
      <g transform="translate(75.055 305.9025)scale(0.16 -0.16)">
       <use xlink:href="#DejaVuSans-30"/>
       <use x="63.623047" xlink:href="#DejaVuSans-2e"/>
       <use x="95.410156" xlink:href="#DejaVuSans-36"/>
      </g>
     </g>
    </g>
    <g id="ytick_4">
     <g id="line2d_10">
      <g>
       <use style="stroke:#000000;stroke-width:1.6;" x="115.2" xlink:href="#m67d90a6117" y="198.799875"/>
      </g>
     </g>
     <g id="text_11">
      <!-- 0.8 -->
      <g transform="translate(75.055 204.878625)scale(0.16 -0.16)">
       <use xlink:href="#DejaVuSans-30"/>
       <use x="63.623047" xlink:href="#DejaVuSans-2e"/>
       <use x="95.410156" xlink:href="#DejaVuSans-38"/>
      </g>
     </g>
    </g>
    <g id="ytick_5">
     <g id="line2d_11">
      <g>
       <use style="stroke:#000000;stroke-width:1.6;" x="115.2" xlink:href="#m67d90a6117" y="97.776"/>
      </g>
     </g>
     <g id="text_12">
      <!-- 1.0 -->
      <g transform="translate(75.055 103.85475)scale(0.16 -0.16)">
       <use xlink:href="#DejaVuSans-31"/>
       <use x="63.623047" xlink:href="#DejaVuSans-2e"/>
       <use x="95.410156" xlink:href="#DejaVuSans-30"/>
      </g>
     </g>
    </g>
    <g id="text_13">
     <!-- Probability -->
     <defs>
      <path d="M 19.671875 64.796875 
L 19.671875 37.40625 
L 32.078125 37.40625 
Q 38.96875 37.40625 42.71875 40.96875 
Q 46.484375 44.53125 46.484375 51.125 
Q 46.484375 57.671875 42.71875 61.234375 
Q 38.96875 64.796875 32.078125 64.796875 
z
M 9.8125 72.90625 
L 32.078125 72.90625 
Q 44.34375 72.90625 50.609375 67.359375 
Q 56.890625 61.8125 56.890625 51.125 
Q 56.890625 40.328125 50.609375 34.8125 
Q 44.34375 29.296875 32.078125 29.296875 
L 19.671875 29.296875 
L 19.671875 0 
L 9.8125 0 
z
" id="DejaVuSans-50"/>
      <path d="M 41.109375 46.296875 
Q 39.59375 47.171875 37.8125 47.578125 
Q 36.03125 48 33.890625 48 
Q 26.265625 48 22.1875 43.046875 
Q 18.109375 38.09375 18.109375 28.8125 
L 18.109375 0 
L 9.078125 0 
L 9.078125 54.6875 
L 18.109375 54.6875 
L 18.109375 46.1875 
Q 20.953125 51.171875 25.484375 53.578125 
Q 30.03125 56 36.53125 56 
Q 37.453125 56 38.578125 55.875 
Q 39.703125 55.765625 41.0625 55.515625 
z
" id="DejaVuSans-72"/>
      <path d="M 30.609375 48.390625 
Q 23.390625 48.390625 19.1875 42.75 
Q 14.984375 37.109375 14.984375 27.296875 
Q 14.984375 17.484375 19.15625 11.84375 
Q 23.34375 6.203125 30.609375 6.203125 
Q 37.796875 6.203125 41.984375 11.859375 
Q 46.1875 17.53125 46.1875 27.296875 
Q 46.1875 37.015625 41.984375 42.703125 
Q 37.796875 48.390625 30.609375 48.390625 
z
M 30.609375 56 
Q 42.328125 56 49.015625 48.375 
Q 55.71875 40.765625 55.71875 27.296875 
Q 55.71875 13.875 49.015625 6.21875 
Q 42.328125 -1.421875 30.609375 -1.421875 
Q 18.84375 -1.421875 12.171875 6.21875 
Q 5.515625 13.875 5.515625 27.296875 
Q 5.515625 40.765625 12.171875 48.375 
Q 18.84375 56 30.609375 56 
z
" id="DejaVuSans-6f"/>
      <path d="M 48.6875 27.296875 
Q 48.6875 37.203125 44.609375 42.84375 
Q 40.53125 48.484375 33.40625 48.484375 
Q 26.265625 48.484375 22.1875 42.84375 
Q 18.109375 37.203125 18.109375 27.296875 
Q 18.109375 17.390625 22.1875 11.75 
Q 26.265625 6.109375 33.40625 6.109375 
Q 40.53125 6.109375 44.609375 11.75 
Q 48.6875 17.390625 48.6875 27.296875 
z
M 18.109375 46.390625 
Q 20.953125 51.265625 25.265625 53.625 
Q 29.59375 56 35.59375 56 
Q 45.5625 56 51.78125 48.09375 
Q 58.015625 40.1875 58.015625 27.296875 
Q 58.015625 14.40625 51.78125 6.484375 
Q 45.5625 -1.421875 35.59375 -1.421875 
Q 29.59375 -1.421875 25.265625 0.953125 
Q 20.953125 3.328125 18.109375 8.203125 
L 18.109375 0 
L 9.078125 0 
L 9.078125 75.984375 
L 18.109375 75.984375 
z
" id="DejaVuSans-62"/>
      <path d="M 34.28125 27.484375 
Q 23.390625 27.484375 19.1875 25 
Q 14.984375 22.515625 14.984375 16.5 
Q 14.984375 11.71875 18.140625 8.90625 
Q 21.296875 6.109375 26.703125 6.109375 
Q 34.1875 6.109375 38.703125 11.40625 
Q 43.21875 16.703125 43.21875 25.484375 
L 43.21875 27.484375 
z
M 52.203125 31.203125 
L 52.203125 0 
L 43.21875 0 
L 43.21875 8.296875 
Q 40.140625 3.328125 35.546875 0.953125 
Q 30.953125 -1.421875 24.3125 -1.421875 
Q 15.921875 -1.421875 10.953125 3.296875 
Q 6 8.015625 6 15.921875 
Q 6 25.140625 12.171875 29.828125 
Q 18.359375 34.515625 30.609375 34.515625 
L 43.21875 34.515625 
L 43.21875 35.40625 
Q 43.21875 41.609375 39.140625 45 
Q 35.0625 48.390625 27.6875 48.390625 
Q 23 48.390625 18.546875 47.265625 
Q 14.109375 46.140625 10.015625 43.890625 
L 10.015625 52.203125 
Q 14.9375 54.109375 19.578125 55.046875 
Q 24.21875 56 28.609375 56 
Q 40.484375 56 46.34375 49.84375 
Q 52.203125 43.703125 52.203125 31.203125 
z
" id="DejaVuSans-61"/>
      <path d="M 9.421875 54.6875 
L 18.40625 54.6875 
L 18.40625 0 
L 9.421875 0 
z
M 9.421875 75.984375 
L 18.40625 75.984375 
L 18.40625 64.59375 
L 9.421875 64.59375 
z
" id="DejaVuSans-69"/>
      <path d="M 9.421875 75.984375 
L 18.40625 75.984375 
L 18.40625 0 
L 9.421875 0 
z
" id="DejaVuSans-6c"/>
      <path d="M 18.3125 70.21875 
L 18.3125 54.6875 
L 36.8125 54.6875 
L 36.8125 47.703125 
L 18.3125 47.703125 
L 18.3125 18.015625 
Q 18.3125 11.328125 20.140625 9.421875 
Q 21.96875 7.515625 27.59375 7.515625 
L 36.8125 7.515625 
L 36.8125 0 
L 27.59375 0 
Q 17.1875 0 13.234375 3.875 
Q 9.28125 7.765625 9.28125 18.015625 
L 9.28125 47.703125 
L 2.6875 47.703125 
L 2.6875 54.6875 
L 9.28125 54.6875 
L 9.28125 70.21875 
z
" id="DejaVuSans-74"/>
      <path d="M 32.171875 -5.078125 
Q 28.375 -14.84375 24.75 -17.8125 
Q 21.140625 -20.796875 15.09375 -20.796875 
L 7.90625 -20.796875 
L 7.90625 -13.28125 
L 13.1875 -13.28125 
Q 16.890625 -13.28125 18.9375 -11.515625 
Q 21 -9.765625 23.484375 -3.21875 
L 25.09375 0.875 
L 2.984375 54.6875 
L 12.5 54.6875 
L 29.59375 11.921875 
L 46.6875 54.6875 
L 56.203125 54.6875 
z
" id="DejaVuSans-79"/>
     </defs>
     <g transform="translate(67.39475 362.07875)rotate(-90)scale(0.176 -0.176)">
      <use xlink:href="#DejaVuSans-50"/>
      <use x="60.287109" xlink:href="#DejaVuSans-72"/>
      <use x="101.369141" xlink:href="#DejaVuSans-6f"/>
      <use x="162.550781" xlink:href="#DejaVuSans-62"/>
      <use x="226.027344" xlink:href="#DejaVuSans-61"/>
      <use x="287.306641" xlink:href="#DejaVuSans-62"/>
      <use x="350.783203" xlink:href="#DejaVuSans-69"/>
      <use x="378.566406" xlink:href="#DejaVuSans-6c"/>
      <use x="406.349609" xlink:href="#DejaVuSans-69"/>
      <use x="434.132812" xlink:href="#DejaVuSans-74"/>
      <use x="473.341797" xlink:href="#DejaVuSans-79"/>
     </g>
    </g>
   </g>
   <g id="line2d_12">
    <path clip-path="url(#p3a3cdb4f92)" d="M 147.665455 97.776 
L 160.91666 97.81641 
L 174.167866 97.932082 
L 187.419072 98.127563 
L 200.670278 98.406642 
L 213.921484 98.773611 
L 227.17269 99.232512 
L 240.423896 99.786628 
L 253.675102 100.439747 
L 266.926308 101.195153 
L 280.177514 102.055624 
L 293.42872 103.024443 
L 306.679926 104.10363 
L 319.931132 105.295712 
L 333.182338 106.602203 
L 346.433544 108.02462 
L 359.68475 109.563971 
L 372.935955 111.220762 
L 386.187161 112.995247 
L 399.438367 114.886666 
L 412.689573 116.894011 
L 425.940779 119.015765 
L 439.191985 121.249908 
L 452.443191 123.593156 
L 465.694397 126.04248 
L 478.945603 128.59308 
L 492.196809 131.240664 
L 505.448015 133.979168 
L 518.699221 136.802281 
L 531.950427 139.702929 
L 545.201633 142.673536 
L 558.452839 145.705767 
L 571.704045 148.790026 
L 584.95525 151.916968 
L 598.206456 155.076489 
L 611.457662 158.257731 
L 624.708868 161.449833 
L 637.960074 164.641935 
L 651.21128 167.822419 
L 664.462486 170.980425 
L 677.713692 174.104841 
L 690.964898 177.185312 
L 704.216104 180.212492 
L 717.46731 183.177038 
L 730.718516 186.071624 
L 743.969722 188.889433 
L 757.220928 191.625664 
L 770.472134 194.277036 
L 783.72334 196.842032 
L 796.974545 199.321663 
" style="fill:none;stroke:#ff0000;stroke-linecap:square;stroke-width:2.8;"/>
    <defs>
     <path d="M 0 2.8 
C 0.742569 2.8 1.454824 2.504974 1.979899 1.979899 
C 2.504974 1.454824 2.8 0.742569 2.8 0 
C 2.8 -0.742569 2.504974 -1.454824 1.979899 -1.979899 
C 1.454824 -2.504974 0.742569 -2.8 0 -2.8 
C -0.742569 -2.8 -1.454824 -2.504974 -1.979899 -1.979899 
C -2.504974 -1.454824 -2.8 -0.742569 -2.8 0 
C -2.8 0.742569 -2.504974 1.454824 -1.979899 1.979899 
C -1.454824 2.504974 -0.742569 2.8 0 2.8 
z
" id="maae04417ed"/>
    </defs>
    <g clip-path="url(#p3a3cdb4f92)">
     <use style="fill:#ff0000;" x="147.665455" xlink:href="#maae04417ed" y="97.776"/>
     <use style="fill:#ff0000;" x="160.91666" xlink:href="#maae04417ed" y="97.81641"/>
     <use style="fill:#ff0000;" x="174.167866" xlink:href="#maae04417ed" y="97.932082"/>
     <use style="fill:#ff0000;" x="187.419072" xlink:href="#maae04417ed" y="98.127563"/>
     <use style="fill:#ff0000;" x="200.670278" xlink:href="#maae04417ed" y="98.406642"/>
     <use style="fill:#ff0000;" x="213.921484" xlink:href="#maae04417ed" y="98.773611"/>
     <use style="fill:#ff0000;" x="227.17269" xlink:href="#maae04417ed" y="99.232512"/>
     <use style="fill:#ff0000;" x="240.423896" xlink:href="#maae04417ed" y="99.786628"/>
     <use style="fill:#ff0000;" x="253.675102" xlink:href="#maae04417ed" y="100.439747"/>
     <use style="fill:#ff0000;" x="266.926308" xlink:href="#maae04417ed" y="101.195153"/>
     <use style="fill:#ff0000;" x="280.177514" xlink:href="#maae04417ed" y="102.055624"/>
     <use style="fill:#ff0000;" x="293.42872" xlink:href="#maae04417ed" y="103.024443"/>
     <use style="fill:#ff0000;" x="306.679926" xlink:href="#maae04417ed" y="104.10363"/>
     <use style="fill:#ff0000;" x="319.931132" xlink:href="#maae04417ed" y="105.295712"/>
     <use style="fill:#ff0000;" x="333.182338" xlink:href="#maae04417ed" y="106.602203"/>
     <use style="fill:#ff0000;" x="346.433544" xlink:href="#maae04417ed" y="108.02462"/>
     <use style="fill:#ff0000;" x="359.68475" xlink:href="#maae04417ed" y="109.563971"/>
     <use style="fill:#ff0000;" x="372.935955" xlink:href="#maae04417ed" y="111.220762"/>
     <use style="fill:#ff0000;" x="386.187161" xlink:href="#maae04417ed" y="112.995247"/>
     <use style="fill:#ff0000;" x="399.438367" xlink:href="#maae04417ed" y="114.886666"/>
     <use style="fill:#ff0000;" x="412.689573" xlink:href="#maae04417ed" y="116.894011"/>
     <use style="fill:#ff0000;" x="425.940779" xlink:href="#maae04417ed" y="119.015765"/>
     <use style="fill:#ff0000;" x="439.191985" xlink:href="#maae04417ed" y="121.249908"/>
     <use style="fill:#ff0000;" x="452.443191" xlink:href="#maae04417ed" y="123.593156"/>
     <use style="fill:#ff0000;" x="465.694397" xlink:href="#maae04417ed" y="126.04248"/>
     <use style="fill:#ff0000;" x="478.945603" xlink:href="#maae04417ed" y="128.59308"/>
     <use style="fill:#ff0000;" x="492.196809" xlink:href="#maae04417ed" y="131.240664"/>
     <use style="fill:#ff0000;" x="505.448015" xlink:href="#maae04417ed" y="133.979168"/>
     <use style="fill:#ff0000;" x="518.699221" xlink:href="#maae04417ed" y="136.802281"/>
     <use style="fill:#ff0000;" x="531.950427" xlink:href="#maae04417ed" y="139.702929"/>
     <use style="fill:#ff0000;" x="545.201633" xlink:href="#maae04417ed" y="142.673536"/>
     <use style="fill:#ff0000;" x="558.452839" xlink:href="#maae04417ed" y="145.705767"/>
     <use style="fill:#ff0000;" x="571.704045" xlink:href="#maae04417ed" y="148.790026"/>
     <use style="fill:#ff0000;" x="584.95525" xlink:href="#maae04417ed" y="151.916968"/>
     <use style="fill:#ff0000;" x="598.206456" xlink:href="#maae04417ed" y="155.076489"/>
     <use style="fill:#ff0000;" x="611.457662" xlink:href="#maae04417ed" y="158.257731"/>
     <use style="fill:#ff0000;" x="624.708868" xlink:href="#maae04417ed" y="161.449833"/>
     <use style="fill:#ff0000;" x="637.960074" xlink:href="#maae04417ed" y="164.641935"/>
     <use style="fill:#ff0000;" x="651.21128" xlink:href="#maae04417ed" y="167.822419"/>
     <use style="fill:#ff0000;" x="664.462486" xlink:href="#maae04417ed" y="170.980425"/>
     <use style="fill:#ff0000;" x="677.713692" xlink:href="#maae04417ed" y="174.104841"/>
     <use style="fill:#ff0000;" x="690.964898" xlink:href="#maae04417ed" y="177.185312"/>
     <use style="fill:#ff0000;" x="704.216104" xlink:href="#maae04417ed" y="180.212492"/>
     <use style="fill:#ff0000;" x="717.46731" xlink:href="#maae04417ed" y="183.177038"/>
     <use style="fill:#ff0000;" x="730.718516" xlink:href="#maae04417ed" y="186.071624"/>
     <use style="fill:#ff0000;" x="743.969722" xlink:href="#maae04417ed" y="188.889433"/>
     <use style="fill:#ff0000;" x="757.220928" xlink:href="#maae04417ed" y="191.625664"/>
     <use style="fill:#ff0000;" x="770.472134" xlink:href="#maae04417ed" y="194.277036"/>
     <use style="fill:#ff0000;" x="783.72334" xlink:href="#maae04417ed" y="196.842032"/>
     <use style="fill:#ff0000;" x="796.974545" xlink:href="#maae04417ed" y="199.321663"/>
    </g>
   </g>
   <g id="line2d_13">
    <path clip-path="url(#p3a3cdb4f92)" d="M 796.974545 201.82453 
L 783.72334 226.118499 
L 770.472134 251.424727 
L 757.220928 277.14389 
L 743.969722 302.748644 
L 730.718516 327.787866 
L 717.46731 351.888644 
L 704.216104 374.754547 
L 690.964898 396.16138 
L 677.713692 415.951452 
L 664.462486 434.026896 
L 651.21128 450.341494 
L 637.960074 464.893226 
L 624.708868 477.717196 
L 611.457662 488.877051 
L 598.206456 498.459418 
L 584.95525 506.567089 
L 571.704045 513.313969 
L 558.452839 518.82078 
L 545.201633 523.210268 
L 531.950427 526.605428 
L 518.699221 529.125973 
L 505.448015 530.886567 
L 492.196809 531.995556 
L 478.945603 532.554218 
L 465.694397 532.656 
L 452.443191 532.385509 
L 439.191985 531.819775 
L 425.940779 531.027243 
L 412.689573 530.068273 
L 399.438367 528.995652 
L 386.187161 527.855345 
L 372.935955 526.686247 
L 359.68475 525.520684 
L 346.433544 524.386186 
L 333.182338 523.303967 
L 319.931132 522.29095 
L 306.679926 521.360268 
L 293.42872 520.520254 
L 280.177514 519.776214 
L 266.926308 519.130419 
L 253.675102 518.582364 
L 240.423896 518.129019 
L 227.17269 517.765586 
L 213.921484 517.484992 
L 200.670278 517.278903 
L 187.419072 517.13747 
L 174.167866 517.049579 
L 160.91666 517.003108 
L 147.665455 516.985429 
" style="fill:none;stroke:#000000;stroke-dasharray:10.36,4.48;stroke-dashoffset:0;stroke-width:2.8;"/>
    <defs>
     <path d="M -0 7.919596 
L 4.751758 0 
L 0 -7.919596 
L -4.751758 -0 
z
" id="m4785efff07"/>
    </defs>
    <g clip-path="url(#p3a3cdb4f92)">
     <use x="796.974545" xlink:href="#m4785efff07" y="201.82453"/>
     <use x="783.72334" xlink:href="#m4785efff07" y="226.118499"/>
     <use x="770.472134" xlink:href="#m4785efff07" y="251.424727"/>
     <use x="757.220928" xlink:href="#m4785efff07" y="277.14389"/>
     <use x="743.969722" xlink:href="#m4785efff07" y="302.748644"/>
     <use x="730.718516" xlink:href="#m4785efff07" y="327.787866"/>
     <use x="717.46731" xlink:href="#m4785efff07" y="351.888644"/>
     <use x="704.216104" xlink:href="#m4785efff07" y="374.754547"/>
     <use x="690.964898" xlink:href="#m4785efff07" y="396.16138"/>
     <use x="677.713692" xlink:href="#m4785efff07" y="415.951452"/>
     <use x="664.462486" xlink:href="#m4785efff07" y="434.026896"/>
     <use x="651.21128" xlink:href="#m4785efff07" y="450.341494"/>
     <use x="637.960074" xlink:href="#m4785efff07" y="464.893226"/>
     <use x="624.708868" xlink:href="#m4785efff07" y="477.717196"/>
     <use x="611.457662" xlink:href="#m4785efff07" y="488.877051"/>
     <use x="598.206456" xlink:href="#m4785efff07" y="498.459418"/>
     <use x="584.95525" xlink:href="#m4785efff07" y="506.567089"/>
     <use x="571.704045" xlink:href="#m4785efff07" y="513.313969"/>
     <use x="558.452839" xlink:href="#m4785efff07" y="518.82078"/>
     <use x="545.201633" xlink:href="#m4785efff07" y="523.210268"/>
     <use x="531.950427" xlink:href="#m4785efff07" y="526.605428"/>
     <use x="518.699221" xlink:href="#m4785efff07" y="529.125973"/>
     <use x="505.448015" xlink:href="#m4785efff07" y="530.886567"/>
     <use x="492.196809" xlink:href="#m4785efff07" y="531.995556"/>
     <use x="478.945603" xlink:href="#m4785efff07" y="532.554218"/>
     <use x="465.694397" xlink:href="#m4785efff07" y="532.656"/>
     <use x="452.443191" xlink:href="#m4785efff07" y="532.385509"/>
     <use x="439.191985" xlink:href="#m4785efff07" y="531.819775"/>
     <use x="425.940779" xlink:href="#m4785efff07" y="531.027243"/>
     <use x="412.689573" xlink:href="#m4785efff07" y="530.068273"/>
     <use x="399.438367" xlink:href="#m4785efff07" y="528.995652"/>
     <use x="386.187161" xlink:href="#m4785efff07" y="527.855345"/>
     <use x="372.935955" xlink:href="#m4785efff07" y="526.686247"/>
     <use x="359.68475" xlink:href="#m4785efff07" y="525.520684"/>
     <use x="346.433544" xlink:href="#m4785efff07" y="524.386186"/>
     <use x="333.182338" xlink:href="#m4785efff07" y="523.303967"/>
     <use x="319.931132" xlink:href="#m4785efff07" y="522.29095"/>
     <use x="306.679926" xlink:href="#m4785efff07" y="521.360268"/>
     <use x="293.42872" xlink:href="#m4785efff07" y="520.520254"/>
     <use x="280.177514" xlink:href="#m4785efff07" y="519.776214"/>
     <use x="266.926308" xlink:href="#m4785efff07" y="519.130419"/>
     <use x="253.675102" xlink:href="#m4785efff07" y="518.582364"/>
     <use x="240.423896" xlink:href="#m4785efff07" y="518.129019"/>
     <use x="227.17269" xlink:href="#m4785efff07" y="517.765586"/>
     <use x="213.921484" xlink:href="#m4785efff07" y="517.484992"/>
     <use x="200.670278" xlink:href="#m4785efff07" y="517.278903"/>
     <use x="187.419072" xlink:href="#m4785efff07" y="517.13747"/>
     <use x="174.167866" xlink:href="#m4785efff07" y="517.049579"/>
     <use x="160.91666" xlink:href="#m4785efff07" y="517.003108"/>
     <use x="147.665455" xlink:href="#m4785efff07" y="516.985429"/>
    </g>
   </g>
   <g id="patch_3">
    <path d="M 115.2 554.4 
L 115.2 76.032 
" style="fill:none;stroke:#000000;stroke-linecap:square;stroke-linejoin:miter;stroke-width:0.8;"/>
   </g>
   <g id="patch_4">
    <path d="M 829.44 554.4 
L 829.44 76.032 
" style="fill:none;stroke:#000000;stroke-linecap:square;stroke-linejoin:miter;stroke-width:0.8;"/>
   </g>
   <g id="patch_5">
    <path d="M 115.2 554.4 
L 829.44 554.4 
" style="fill:none;stroke:#000000;stroke-linecap:square;stroke-linejoin:miter;stroke-width:0.8;"/>
   </g>
   <g id="patch_6">
    <path d="M 115.2 76.032 
L 829.44 76.032 
" style="fill:none;stroke:#000000;stroke-linecap:square;stroke-linejoin:miter;stroke-width:0.8;"/>
   </g>
   <g id="text_14">
    <!-- $\theta_v=0$, $\mu=4$, $R=0.1$, IH -->
    <defs>
     <path d="M 45.515625 34.671875 
L 14.453125 34.671875 
Q 12.359375 20.0625 14.5 13.875 
Q 17.1875 6.25 24.46875 6.25 
Q 31.78125 6.25 37.359375 13.921875 
Q 42.234375 20.65625 45.515625 34.671875 
z
M 47.015625 42.96875 
Q 48.34375 56.84375 46.625 61.71875 
Q 43.953125 69.4375 36.765625 69.4375 
Q 29.296875 69.4375 23.828125 61.8125 
Q 19.53125 55.671875 16.15625 42.96875 
z
M 38.1875 76.765625 
Q 49.90625 76.765625 54.59375 66.40625 
Q 59.28125 56.109375 55.71875 37.84375 
Q 52.203125 19.625 43.453125 9.28125 
Q 34.765625 -1.125 23.046875 -1.125 
Q 11.28125 -1.125 6.640625 9.28125 
Q 2 19.625 5.515625 37.84375 
Q 9.078125 56.109375 17.71875 66.40625 
Q 26.421875 76.765625 38.1875 76.765625 
z
" id="DejaVuSans-Oblique-3b8"/>
     <path d="M 7.171875 54.6875 
L 16.703125 54.6875 
L 24.703125 8.203125 
L 50.875 54.6875 
L 60.40625 54.6875 
L 29.296875 0 
L 17.1875 0 
z
" id="DejaVuSans-Oblique-76"/>
     <path d="M 10.59375 45.40625 
L 73.1875 45.40625 
L 73.1875 37.203125 
L 10.59375 37.203125 
z
M 10.59375 25.484375 
L 73.1875 25.484375 
L 73.1875 17.1875 
L 10.59375 17.1875 
z
" id="DejaVuSans-3d"/>
     <path d="M 11.71875 12.40625 
L 22.015625 12.40625 
L 22.015625 4 
L 14.015625 -11.625 
L 7.71875 -11.625 
L 11.71875 4 
z
" id="DejaVuSans-2c"/>
     <path id="DejaVuSans-20"/>
     <path d="M -1.3125 -20.796875 
L 13.375 54.6875 
L 22.40625 54.6875 
L 15.765625 20.65625 
Q 15.578125 19.625 15.421875 18.359375 
Q 15.28125 17.09375 15.28125 15.828125 
Q 15.28125 11.28125 18.140625 8.828125 
Q 21 6.390625 26.3125 6.390625 
Q 33.546875 6.390625 37.984375 10.484375 
Q 42.4375 14.59375 44 22.796875 
L 50.203125 54.6875 
L 59.1875 54.6875 
L 51.03125 12.640625 
Q 50.828125 11.71875 50.75 11.03125 
Q 50.6875 10.359375 50.6875 9.8125 
Q 50.6875 8.296875 51.296875 7.59375 
Q 51.90625 6.890625 53.21875 6.890625 
Q 53.71875 6.890625 54.5625 7.125 
Q 55.421875 7.375 56.984375 8.015625 
L 55.609375 0.78125 
Q 53.46875 -0.296875 51.515625 -0.859375 
Q 49.5625 -1.421875 47.703125 -1.421875 
Q 44.484375 -1.421875 42.65625 0.625 
Q 40.828125 2.6875 40.828125 6.296875 
Q 38.09375 2.390625 34.296875 0.484375 
Q 30.515625 -1.421875 25.390625 -1.421875 
Q 20.84375 -1.421875 17.453125 0.671875 
Q 14.0625 2.78125 12.984375 6.203125 
L 7.71875 -20.796875 
z
" id="DejaVuSans-Oblique-3bc"/>
     <path d="M 25.203125 64.796875 
L 20.21875 38.921875 
L 32.90625 38.921875 
Q 40.375 38.921875 44.984375 43.046875 
Q 49.609375 47.171875 49.609375 53.8125 
Q 49.609375 59.125 46.5 61.953125 
Q 43.40625 64.796875 37.59375 64.796875 
z
M 43.3125 35.015625 
Q 46.4375 34.28125 48.515625 31.390625 
Q 50.59375 28.515625 53.328125 19.921875 
L 59.515625 0 
L 49.125 0 
L 43.40625 18.703125 
Q 41.21875 25.921875 38.328125 28.359375 
Q 35.453125 30.8125 29.5 30.8125 
L 18.609375 30.8125 
L 12.59375 0 
L 2.6875 0 
L 16.890625 72.90625 
L 39.109375 72.90625 
Q 49.21875 72.90625 54.609375 68.328125 
Q 60.015625 63.765625 60.015625 55.171875 
Q 60.015625 47.5625 55.421875 41.984375 
Q 50.828125 36.421875 43.3125 35.015625 
z
" id="DejaVuSans-Oblique-52"/>
     <path d="M 9.8125 72.90625 
L 19.671875 72.90625 
L 19.671875 0 
L 9.8125 0 
z
" id="DejaVuSans-49"/>
     <path d="M 9.8125 72.90625 
L 19.671875 72.90625 
L 19.671875 43.015625 
L 55.515625 43.015625 
L 55.515625 72.90625 
L 65.375 72.90625 
L 65.375 0 
L 55.515625 0 
L 55.515625 34.71875 
L 19.671875 34.71875 
L 19.671875 0 
L 9.8125 0 
z
" id="DejaVuSans-48"/>
    </defs>
    <g transform="translate(358.176 70.032)scale(0.192 -0.192)">
     <use transform="translate(0 0.234375)" xlink:href="#DejaVuSans-Oblique-3b8"/>
     <use transform="translate(61.181641 -16.171875)scale(0.7)" xlink:href="#DejaVuSans-Oblique-76"/>
     <use transform="translate(124.824219 0.234375)" xlink:href="#DejaVuSans-3d"/>
     <use transform="translate(228.095703 0.234375)" xlink:href="#DejaVuSans-30"/>
     <use transform="translate(291.71875 0.234375)" xlink:href="#DejaVuSans-2c"/>
     <use transform="translate(323.505859 0.234375)" xlink:href="#DejaVuSans-20"/>
     <use transform="translate(355.292969 0.234375)" xlink:href="#DejaVuSans-Oblique-3bc"/>
     <use transform="translate(438.398438 0.234375)" xlink:href="#DejaVuSans-3d"/>
     <use transform="translate(541.669922 0.234375)" xlink:href="#DejaVuSans-34"/>
     <use transform="translate(605.292969 0.234375)" xlink:href="#DejaVuSans-2c"/>
     <use transform="translate(637.080078 0.234375)" xlink:href="#DejaVuSans-20"/>
     <use transform="translate(668.867188 0.234375)" xlink:href="#DejaVuSans-Oblique-52"/>
     <use transform="translate(757.832031 0.234375)" xlink:href="#DejaVuSans-3d"/>
     <use transform="translate(861.103516 0.234375)" xlink:href="#DejaVuSans-30"/>
     <use transform="translate(924.726562 0.234375)" xlink:href="#DejaVuSans-2e"/>
     <use transform="translate(956.513672 0.234375)" xlink:href="#DejaVuSans-31"/>
     <use transform="translate(1020.136719 0.234375)" xlink:href="#DejaVuSans-2c"/>
     <use transform="translate(1051.923828 0.234375)" xlink:href="#DejaVuSans-20"/>
     <use transform="translate(1083.710938 0.234375)" xlink:href="#DejaVuSans-49"/>
     <use transform="translate(1113.203125 0.234375)" xlink:href="#DejaVuSans-48"/>
    </g>
   </g>
   <g id="legend_1">
    <g id="patch_7">
     <path d="M 688.5725 135.802 
L 818.24 135.802 
Q 821.44 135.802 821.44 132.602 
L 821.44 87.232 
Q 821.44 84.032 818.24 84.032 
L 688.5725 84.032 
Q 685.3725 84.032 685.3725 87.232 
L 685.3725 132.602 
Q 685.3725 135.802 688.5725 135.802 
z
" style="fill:#ffffff;opacity:0.8;stroke:#cccccc;stroke-linejoin:miter;stroke-width:0.48;"/>
    </g>
    <g id="line2d_14">
     <path d="M 691.7725 96.9895 
L 723.7725 96.9895 
" style="fill:none;stroke:#ff0000;stroke-linecap:square;stroke-width:2.8;"/>
    </g>
    <g id="line2d_15">
     <g>
      <use style="fill:#ff0000;" x="707.7725" xlink:href="#maae04417ed" y="96.9895"/>
     </g>
    </g>
    <g id="text_15">
     <!-- Forward -->
     <defs>
      <path d="M 9.8125 72.90625 
L 51.703125 72.90625 
L 51.703125 64.59375 
L 19.671875 64.59375 
L 19.671875 43.109375 
L 48.578125 43.109375 
L 48.578125 34.8125 
L 19.671875 34.8125 
L 19.671875 0 
L 9.8125 0 
z
" id="DejaVuSans-46"/>
      <path d="M 4.203125 54.6875 
L 13.1875 54.6875 
L 24.421875 12.015625 
L 35.59375 54.6875 
L 46.1875 54.6875 
L 57.421875 12.015625 
L 68.609375 54.6875 
L 77.59375 54.6875 
L 63.28125 0 
L 52.6875 0 
L 40.921875 44.828125 
L 29.109375 0 
L 18.5 0 
z
" id="DejaVuSans-77"/>
      <path d="M 45.40625 46.390625 
L 45.40625 75.984375 
L 54.390625 75.984375 
L 54.390625 0 
L 45.40625 0 
L 45.40625 8.203125 
Q 42.578125 3.328125 38.25 0.953125 
Q 33.9375 -1.421875 27.875 -1.421875 
Q 17.96875 -1.421875 11.734375 6.484375 
Q 5.515625 14.40625 5.515625 27.296875 
Q 5.515625 40.1875 11.734375 48.09375 
Q 17.96875 56 27.875 56 
Q 33.9375 56 38.25 53.625 
Q 42.578125 51.265625 45.40625 46.390625 
z
M 14.796875 27.296875 
Q 14.796875 17.390625 18.875 11.75 
Q 22.953125 6.109375 30.078125 6.109375 
Q 37.203125 6.109375 41.296875 11.75 
Q 45.40625 17.390625 45.40625 27.296875 
Q 45.40625 37.203125 41.296875 42.84375 
Q 37.203125 48.484375 30.078125 48.484375 
Q 22.953125 48.484375 18.875 42.84375 
Q 14.796875 37.203125 14.796875 27.296875 
z
" id="DejaVuSans-64"/>
     </defs>
     <g transform="translate(736.5725 102.5895)scale(0.16 -0.16)">
      <use xlink:href="#DejaVuSans-46"/>
      <use x="57.472656" xlink:href="#DejaVuSans-6f"/>
      <use x="118.654297" xlink:href="#DejaVuSans-72"/>
      <use x="159.767578" xlink:href="#DejaVuSans-77"/>
      <use x="241.554688" xlink:href="#DejaVuSans-61"/>
      <use x="302.833984" xlink:href="#DejaVuSans-72"/>
      <use x="343.931641" xlink:href="#DejaVuSans-64"/>
     </g>
    </g>
    <g id="line2d_16">
     <path d="M 691.7725 120.4745 
L 723.7725 120.4745 
" style="fill:none;stroke:#000000;stroke-dasharray:10.36,4.48;stroke-dashoffset:0;stroke-width:2.8;"/>
    </g>
    <g id="line2d_17">
     <g>
      <use x="707.7725" xlink:href="#m4785efff07" y="120.4745"/>
     </g>
    </g>
    <g id="text_16">
     <!-- Backward -->
     <defs>
      <path d="M 19.671875 34.8125 
L 19.671875 8.109375 
L 35.5 8.109375 
Q 43.453125 8.109375 47.28125 11.40625 
Q 51.125 14.703125 51.125 21.484375 
Q 51.125 28.328125 47.28125 31.5625 
Q 43.453125 34.8125 35.5 34.8125 
z
M 19.671875 64.796875 
L 19.671875 42.828125 
L 34.28125 42.828125 
Q 41.5 42.828125 45.03125 45.53125 
Q 48.578125 48.25 48.578125 53.8125 
Q 48.578125 59.328125 45.03125 62.0625 
Q 41.5 64.796875 34.28125 64.796875 
z
M 9.8125 72.90625 
L 35.015625 72.90625 
Q 46.296875 72.90625 52.390625 68.21875 
Q 58.5 63.53125 58.5 54.890625 
Q 58.5 48.1875 55.375 44.234375 
Q 52.25 40.28125 46.1875 39.3125 
Q 53.46875 37.75 57.5 32.78125 
Q 61.53125 27.828125 61.53125 20.40625 
Q 61.53125 10.640625 54.890625 5.3125 
Q 48.25 0 35.984375 0 
L 9.8125 0 
z
" id="DejaVuSans-42"/>
      <path d="M 48.78125 52.59375 
L 48.78125 44.1875 
Q 44.96875 46.296875 41.140625 47.34375 
Q 37.3125 48.390625 33.40625 48.390625 
Q 24.65625 48.390625 19.8125 42.84375 
Q 14.984375 37.3125 14.984375 27.296875 
Q 14.984375 17.28125 19.8125 11.734375 
Q 24.65625 6.203125 33.40625 6.203125 
Q 37.3125 6.203125 41.140625 7.25 
Q 44.96875 8.296875 48.78125 10.40625 
L 48.78125 2.09375 
Q 45.015625 0.34375 40.984375 -0.53125 
Q 36.96875 -1.421875 32.421875 -1.421875 
Q 20.0625 -1.421875 12.78125 6.34375 
Q 5.515625 14.109375 5.515625 27.296875 
Q 5.515625 40.671875 12.859375 48.328125 
Q 20.21875 56 33.015625 56 
Q 37.15625 56 41.109375 55.140625 
Q 45.0625 54.296875 48.78125 52.59375 
z
" id="DejaVuSans-63"/>
      <path d="M 9.078125 75.984375 
L 18.109375 75.984375 
L 18.109375 31.109375 
L 44.921875 54.6875 
L 56.390625 54.6875 
L 27.390625 29.109375 
L 57.625 0 
L 45.90625 0 
L 18.109375 26.703125 
L 18.109375 0 
L 9.078125 0 
z
" id="DejaVuSans-6b"/>
     </defs>
     <g transform="translate(736.5725 126.0745)scale(0.16 -0.16)">
      <use xlink:href="#DejaVuSans-42"/>
      <use x="68.603516" xlink:href="#DejaVuSans-61"/>
      <use x="129.882812" xlink:href="#DejaVuSans-63"/>
      <use x="184.863281" xlink:href="#DejaVuSans-6b"/>
      <use x="242.773438" xlink:href="#DejaVuSans-77"/>
      <use x="324.560547" xlink:href="#DejaVuSans-61"/>
      <use x="385.839844" xlink:href="#DejaVuSans-72"/>
      <use x="426.9375" xlink:href="#DejaVuSans-64"/>
     </g>
    </g>
   </g>
  </g>
 </g>
 <defs>
  <clipPath id="p3a3cdb4f92">
   <rect height="478.368" width="714.24" x="115.2" y="76.032"/>
  </clipPath>
 </defs>
</svg>
