<?xml version="1.0" encoding="utf-8" standalone="no"?>
<!DOCTYPE svg PUBLIC "-//W3C//DTD SVG 1.1//EN"
  "http://www.w3.org/Graphics/SVG/1.1/DTD/svg11.dtd">
<!-- Created with matplotlib (http://matplotlib.org/) -->
<svg height="633pt" version="1.1" viewBox="0 0 921 633" width="921pt" xmlns="http://www.w3.org/2000/svg" xmlns:xlink="http://www.w3.org/1999/xlink">
 <defs>
  <style type="text/css">
*{stroke-linecap:butt;stroke-linejoin:round;}
  </style>
 </defs>
 <g id="figure_1">
  <g id="patch_1">
   <path d="M 0 633.6 
L 921.6 633.6 
L 921.6 0 
L 0 0 
z
" style="fill:#ffffff;"/>
  </g>
  <g id="axes_1">
   <g id="patch_2">
    <path d="M 115.2 554.4 
L 829.44 554.4 
L 829.44 76.032 
L 115.2 76.032 
z
" style="fill:#ffffff;"/>
   </g>
   <g id="matplotlib.axis_1">
    <g id="xtick_1">
     <g id="line2d_1">
      <defs>
       <path d="M 0 0 
L 0 3.5 
" id="mc7c456877f" style="stroke:#000000;stroke-width:1.6;"/>
      </defs>
      <g>
       <use style="stroke:#000000;stroke-width:1.6;" x="147.665455" xlink:href="#mc7c456877f" y="554.4"/>
      </g>
     </g>
     <g id="text_1">
      <!-- 0.0 -->
      <defs>
       <path d="M 31.78125 66.40625 
Q 24.171875 66.40625 20.328125 58.90625 
Q 16.5 51.421875 16.5 36.375 
Q 16.5 21.390625 20.328125 13.890625 
Q 24.171875 6.390625 31.78125 6.390625 
Q 39.453125 6.390625 43.28125 13.890625 
Q 47.125 21.390625 47.125 36.375 
Q 47.125 51.421875 43.28125 58.90625 
Q 39.453125 66.40625 31.78125 66.40625 
z
M 31.78125 74.21875 
Q 44.046875 74.21875 50.515625 64.515625 
Q 56.984375 54.828125 56.984375 36.375 
Q 56.984375 17.96875 50.515625 8.265625 
Q 44.046875 -1.421875 31.78125 -1.421875 
Q 19.53125 -1.421875 13.0625 8.265625 
Q 6.59375 17.96875 6.59375 36.375 
Q 6.59375 54.828125 13.0625 64.515625 
Q 19.53125 74.21875 31.78125 74.21875 
z
" id="DejaVuSans-30"/>
       <path d="M 10.6875 12.40625 
L 21 12.40625 
L 21 0 
L 10.6875 0 
z
" id="DejaVuSans-2e"/>
      </defs>
      <g transform="translate(134.942955 581.2575)scale(0.16 -0.16)">
       <use xlink:href="#DejaVuSans-30"/>
       <use x="63.623047" xlink:href="#DejaVuSans-2e"/>
       <use x="95.410156" xlink:href="#DejaVuSans-30"/>
      </g>
     </g>
    </g>
    <g id="xtick_2">
     <g id="line2d_2">
      <g>
       <use style="stroke:#000000;stroke-width:1.6;" x="280.177514" xlink:href="#mc7c456877f" y="554.4"/>
      </g>
     </g>
     <g id="text_2">
      <!-- 0.2 -->
      <defs>
       <path d="M 19.1875 8.296875 
L 53.609375 8.296875 
L 53.609375 0 
L 7.328125 0 
L 7.328125 8.296875 
Q 12.9375 14.109375 22.625 23.890625 
Q 32.328125 33.6875 34.8125 36.53125 
Q 39.546875 41.84375 41.421875 45.53125 
Q 43.3125 49.21875 43.3125 52.78125 
Q 43.3125 58.59375 39.234375 62.25 
Q 35.15625 65.921875 28.609375 65.921875 
Q 23.96875 65.921875 18.8125 64.3125 
Q 13.671875 62.703125 7.8125 59.421875 
L 7.8125 69.390625 
Q 13.765625 71.78125 18.9375 73 
Q 24.125 74.21875 28.421875 74.21875 
Q 39.75 74.21875 46.484375 68.546875 
Q 53.21875 62.890625 53.21875 53.421875 
Q 53.21875 48.921875 51.53125 44.890625 
Q 49.859375 40.875 45.40625 35.40625 
Q 44.1875 33.984375 37.640625 27.21875 
Q 31.109375 20.453125 19.1875 8.296875 
z
" id="DejaVuSans-32"/>
      </defs>
      <g transform="translate(267.455014 581.2575)scale(0.16 -0.16)">
       <use xlink:href="#DejaVuSans-30"/>
       <use x="63.623047" xlink:href="#DejaVuSans-2e"/>
       <use x="95.410156" xlink:href="#DejaVuSans-32"/>
      </g>
     </g>
    </g>
    <g id="xtick_3">
     <g id="line2d_3">
      <g>
       <use style="stroke:#000000;stroke-width:1.6;" x="412.689573" xlink:href="#mc7c456877f" y="554.4"/>
      </g>
     </g>
     <g id="text_3">
      <!-- 0.4 -->
      <defs>
       <path d="M 37.796875 64.3125 
L 12.890625 25.390625 
L 37.796875 25.390625 
z
M 35.203125 72.90625 
L 47.609375 72.90625 
L 47.609375 25.390625 
L 58.015625 25.390625 
L 58.015625 17.1875 
L 47.609375 17.1875 
L 47.609375 0 
L 37.796875 0 
L 37.796875 17.1875 
L 4.890625 17.1875 
L 4.890625 26.703125 
z
" id="DejaVuSans-34"/>
      </defs>
      <g transform="translate(399.967073 581.2575)scale(0.16 -0.16)">
       <use xlink:href="#DejaVuSans-30"/>
       <use x="63.623047" xlink:href="#DejaVuSans-2e"/>
       <use x="95.410156" xlink:href="#DejaVuSans-34"/>
      </g>
     </g>
    </g>
    <g id="xtick_4">
     <g id="line2d_4">
      <g>
       <use style="stroke:#000000;stroke-width:1.6;" x="545.201633" xlink:href="#mc7c456877f" y="554.4"/>
      </g>
     </g>
     <g id="text_4">
      <!-- 0.6 -->
      <defs>
       <path d="M 33.015625 40.375 
Q 26.375 40.375 22.484375 35.828125 
Q 18.609375 31.296875 18.609375 23.390625 
Q 18.609375 15.53125 22.484375 10.953125 
Q 26.375 6.390625 33.015625 6.390625 
Q 39.65625 6.390625 43.53125 10.953125 
Q 47.40625 15.53125 47.40625 23.390625 
Q 47.40625 31.296875 43.53125 35.828125 
Q 39.65625 40.375 33.015625 40.375 
z
M 52.59375 71.296875 
L 52.59375 62.3125 
Q 48.875 64.0625 45.09375 64.984375 
Q 41.3125 65.921875 37.59375 65.921875 
Q 27.828125 65.921875 22.671875 59.328125 
Q 17.53125 52.734375 16.796875 39.40625 
Q 19.671875 43.65625 24.015625 45.921875 
Q 28.375 48.1875 33.59375 48.1875 
Q 44.578125 48.1875 50.953125 41.515625 
Q 57.328125 34.859375 57.328125 23.390625 
Q 57.328125 12.15625 50.6875 5.359375 
Q 44.046875 -1.421875 33.015625 -1.421875 
Q 20.359375 -1.421875 13.671875 8.265625 
Q 6.984375 17.96875 6.984375 36.375 
Q 6.984375 53.65625 15.1875 63.9375 
Q 23.390625 74.21875 37.203125 74.21875 
Q 40.921875 74.21875 44.703125 73.484375 
Q 48.484375 72.75 52.59375 71.296875 
z
" id="DejaVuSans-36"/>
      </defs>
      <g transform="translate(532.479133 581.2575)scale(0.16 -0.16)">
       <use xlink:href="#DejaVuSans-30"/>
       <use x="63.623047" xlink:href="#DejaVuSans-2e"/>
       <use x="95.410156" xlink:href="#DejaVuSans-36"/>
      </g>
     </g>
    </g>
    <g id="xtick_5">
     <g id="line2d_5">
      <g>
       <use style="stroke:#000000;stroke-width:1.6;" x="677.713692" xlink:href="#mc7c456877f" y="554.4"/>
      </g>
     </g>
     <g id="text_5">
      <!-- 0.8 -->
      <defs>
       <path d="M 31.78125 34.625 
Q 24.75 34.625 20.71875 30.859375 
Q 16.703125 27.09375 16.703125 20.515625 
Q 16.703125 13.921875 20.71875 10.15625 
Q 24.75 6.390625 31.78125 6.390625 
Q 38.8125 6.390625 42.859375 10.171875 
Q 46.921875 13.96875 46.921875 20.515625 
Q 46.921875 27.09375 42.890625 30.859375 
Q 38.875 34.625 31.78125 34.625 
z
M 21.921875 38.8125 
Q 15.578125 40.375 12.03125 44.71875 
Q 8.5 49.078125 8.5 55.328125 
Q 8.5 64.0625 14.71875 69.140625 
Q 20.953125 74.21875 31.78125 74.21875 
Q 42.671875 74.21875 48.875 69.140625 
Q 55.078125 64.0625 55.078125 55.328125 
Q 55.078125 49.078125 51.53125 44.71875 
Q 48 40.375 41.703125 38.8125 
Q 48.828125 37.15625 52.796875 32.3125 
Q 56.78125 27.484375 56.78125 20.515625 
Q 56.78125 9.90625 50.3125 4.234375 
Q 43.84375 -1.421875 31.78125 -1.421875 
Q 19.734375 -1.421875 13.25 4.234375 
Q 6.78125 9.90625 6.78125 20.515625 
Q 6.78125 27.484375 10.78125 32.3125 
Q 14.796875 37.15625 21.921875 38.8125 
z
M 18.3125 54.390625 
Q 18.3125 48.734375 21.84375 45.5625 
Q 25.390625 42.390625 31.78125 42.390625 
Q 38.140625 42.390625 41.71875 45.5625 
Q 45.3125 48.734375 45.3125 54.390625 
Q 45.3125 60.0625 41.71875 63.234375 
Q 38.140625 66.40625 31.78125 66.40625 
Q 25.390625 66.40625 21.84375 63.234375 
Q 18.3125 60.0625 18.3125 54.390625 
z
" id="DejaVuSans-38"/>
      </defs>
      <g transform="translate(664.991192 581.2575)scale(0.16 -0.16)">
       <use xlink:href="#DejaVuSans-30"/>
       <use x="63.623047" xlink:href="#DejaVuSans-2e"/>
       <use x="95.410156" xlink:href="#DejaVuSans-38"/>
      </g>
     </g>
    </g>
    <g id="xtick_6">
     <g id="line2d_6">
      <g>
       <use style="stroke:#000000;stroke-width:1.6;" x="810.225751" xlink:href="#mc7c456877f" y="554.4"/>
      </g>
     </g>
     <g id="text_6">
      <!-- 1.0 -->
      <defs>
       <path d="M 12.40625 8.296875 
L 28.515625 8.296875 
L 28.515625 63.921875 
L 10.984375 60.40625 
L 10.984375 69.390625 
L 28.421875 72.90625 
L 38.28125 72.90625 
L 38.28125 8.296875 
L 54.390625 8.296875 
L 54.390625 0 
L 12.40625 0 
z
" id="DejaVuSans-31"/>
      </defs>
      <g transform="translate(797.503251 581.2575)scale(0.16 -0.16)">
       <use xlink:href="#DejaVuSans-31"/>
       <use x="63.623047" xlink:href="#DejaVuSans-2e"/>
       <use x="95.410156" xlink:href="#DejaVuSans-30"/>
      </g>
     </g>
    </g>
    <g id="text_7">
     <!-- z -->
     <defs>
      <path d="M 5.515625 54.6875 
L 48.1875 54.6875 
L 48.1875 46.484375 
L 14.40625 7.171875 
L 48.1875 7.171875 
L 48.1875 0 
L 4.296875 0 
L 4.296875 8.203125 
L 38.09375 47.515625 
L 5.515625 47.515625 
z
" id="DejaVuSans-7a"/>
     </defs>
     <g transform="translate(467.701375 601.95825)scale(0.176 -0.176)">
      <use xlink:href="#DejaVuSans-7a"/>
     </g>
    </g>
   </g>
   <g id="matplotlib.axis_2">
    <g id="ytick_1">
     <g id="line2d_7">
      <defs>
       <path d="M 0 0 
L -3.5 0 
" id="m30c0f7057e" style="stroke:#000000;stroke-width:1.6;"/>
      </defs>
      <g>
       <use style="stroke:#000000;stroke-width:1.6;" x="115.2" xlink:href="#m30c0f7057e" y="532.656"/>
      </g>
     </g>
     <g id="text_8">
      <!-- $\mathdefault{10^{-3}}$ -->
      <defs>
       <path d="M 10.59375 35.5 
L 73.1875 35.5 
L 73.1875 27.203125 
L 10.59375 27.203125 
z
" id="DejaVuSans-2212"/>
       <path d="M 40.578125 39.3125 
Q 47.65625 37.796875 51.625 33 
Q 55.609375 28.21875 55.609375 21.1875 
Q 55.609375 10.40625 48.1875 4.484375 
Q 40.765625 -1.421875 27.09375 -1.421875 
Q 22.515625 -1.421875 17.65625 -0.515625 
Q 12.796875 0.390625 7.625 2.203125 
L 7.625 11.71875 
Q 11.71875 9.328125 16.59375 8.109375 
Q 21.484375 6.890625 26.8125 6.890625 
Q 36.078125 6.890625 40.9375 10.546875 
Q 45.796875 14.203125 45.796875 21.1875 
Q 45.796875 27.640625 41.28125 31.265625 
Q 36.765625 34.90625 28.71875 34.90625 
L 20.21875 34.90625 
L 20.21875 43.015625 
L 29.109375 43.015625 
Q 36.375 43.015625 40.234375 45.921875 
Q 44.09375 48.828125 44.09375 54.296875 
Q 44.09375 59.90625 40.109375 62.90625 
Q 36.140625 65.921875 28.71875 65.921875 
Q 24.65625 65.921875 20.015625 65.03125 
Q 15.375 64.15625 9.8125 62.3125 
L 9.8125 71.09375 
Q 15.4375 72.65625 20.34375 73.4375 
Q 25.25 74.21875 29.59375 74.21875 
Q 40.828125 74.21875 47.359375 69.109375 
Q 53.90625 64.015625 53.90625 55.328125 
Q 53.90625 49.265625 50.4375 45.09375 
Q 46.96875 40.921875 40.578125 39.3125 
z
" id="DejaVuSans-33"/>
      </defs>
      <g transform="translate(62.9 538.73475)scale(0.16 -0.16)">
       <use transform="translate(0 0.765625)" xlink:href="#DejaVuSans-31"/>
       <use transform="translate(63.623047 0.765625)" xlink:href="#DejaVuSans-30"/>
       <use transform="translate(128.203125 39.046875)scale(0.7)" xlink:href="#DejaVuSans-2212"/>
       <use transform="translate(186.855469 39.046875)scale(0.7)" xlink:href="#DejaVuSans-33"/>
      </g>
     </g>
    </g>
    <g id="ytick_2">
     <g id="line2d_8">
      <g>
       <use style="stroke:#000000;stroke-width:1.6;" x="115.2" xlink:href="#m30c0f7057e" y="387.700251"/>
      </g>
     </g>
     <g id="text_9">
      <!-- $\mathdefault{10^{-2}}$ -->
      <g transform="translate(62.9 393.779001)scale(0.16 -0.16)">
       <use transform="translate(0 0.765625)" xlink:href="#DejaVuSans-31"/>
       <use transform="translate(63.623047 0.765625)" xlink:href="#DejaVuSans-30"/>
       <use transform="translate(128.203125 39.046875)scale(0.7)" xlink:href="#DejaVuSans-2212"/>
       <use transform="translate(186.855469 39.046875)scale(0.7)" xlink:href="#DejaVuSans-32"/>
      </g>
     </g>
    </g>
    <g id="ytick_3">
     <g id="line2d_9">
      <g>
       <use style="stroke:#000000;stroke-width:1.6;" x="115.2" xlink:href="#m30c0f7057e" y="242.744502"/>
      </g>
     </g>
     <g id="text_10">
      <!-- $\mathdefault{10^{-1}}$ -->
      <g transform="translate(62.9 248.823252)scale(0.16 -0.16)">
       <use transform="translate(0 0.684375)" xlink:href="#DejaVuSans-31"/>
       <use transform="translate(63.623047 0.684375)" xlink:href="#DejaVuSans-30"/>
       <use transform="translate(128.203125 38.965625)scale(0.7)" xlink:href="#DejaVuSans-2212"/>
       <use transform="translate(186.855469 38.965625)scale(0.7)" xlink:href="#DejaVuSans-31"/>
      </g>
     </g>
    </g>
    <g id="ytick_4">
     <g id="line2d_10">
      <g>
       <use style="stroke:#000000;stroke-width:1.6;" x="115.2" xlink:href="#m30c0f7057e" y="97.788753"/>
      </g>
     </g>
     <g id="text_11">
      <!-- $\mathdefault{10^{0}}$ -->
      <g transform="translate(72.34 103.867503)scale(0.16 -0.16)">
       <use transform="translate(0 0.765625)" xlink:href="#DejaVuSans-31"/>
       <use transform="translate(63.623047 0.765625)" xlink:href="#DejaVuSans-30"/>
       <use transform="translate(128.203125 39.046875)scale(0.7)" xlink:href="#DejaVuSans-30"/>
      </g>
     </g>
    </g>
    <g id="ytick_5">
     <g id="line2d_11">
      <defs>
       <path d="M 0 0 
L -2 0 
" id="m1f0e9e28a6" style="stroke:#000000;stroke-width:0.8;"/>
      </defs>
      <g>
       <use style="stroke:#000000;stroke-width:0.8;" x="115.2" xlink:href="#m1f0e9e28a6" y="546.703664"/>
      </g>
     </g>
    </g>
    <g id="ytick_6">
     <g id="line2d_12">
      <g>
       <use style="stroke:#000000;stroke-width:0.8;" x="115.2" xlink:href="#m1f0e9e28a6" y="539.288811"/>
      </g>
     </g>
    </g>
    <g id="ytick_7">
     <g id="line2d_13">
      <g>
       <use style="stroke:#000000;stroke-width:0.8;" x="115.2" xlink:href="#m1f0e9e28a6" y="489.019971"/>
      </g>
     </g>
    </g>
    <g id="ytick_8">
     <g id="line2d_14">
      <g>
       <use style="stroke:#000000;stroke-width:0.8;" x="115.2" xlink:href="#m1f0e9e28a6" y="463.494531"/>
      </g>
     </g>
    </g>
    <g id="ytick_9">
     <g id="line2d_15">
      <g>
       <use style="stroke:#000000;stroke-width:0.8;" x="115.2" xlink:href="#m1f0e9e28a6" y="445.383943"/>
      </g>
     </g>
    </g>
    <g id="ytick_10">
     <g id="line2d_16">
      <g>
       <use style="stroke:#000000;stroke-width:0.8;" x="115.2" xlink:href="#m1f0e9e28a6" y="431.336279"/>
      </g>
     </g>
    </g>
    <g id="ytick_11">
     <g id="line2d_17">
      <g>
       <use style="stroke:#000000;stroke-width:0.8;" x="115.2" xlink:href="#m1f0e9e28a6" y="419.858503"/>
      </g>
     </g>
    </g>
    <g id="ytick_12">
     <g id="line2d_18">
      <g>
       <use style="stroke:#000000;stroke-width:0.8;" x="115.2" xlink:href="#m1f0e9e28a6" y="410.154181"/>
      </g>
     </g>
    </g>
    <g id="ytick_13">
     <g id="line2d_19">
      <g>
       <use style="stroke:#000000;stroke-width:0.8;" x="115.2" xlink:href="#m1f0e9e28a6" y="401.747914"/>
      </g>
     </g>
    </g>
    <g id="ytick_14">
     <g id="line2d_20">
      <g>
       <use style="stroke:#000000;stroke-width:0.8;" x="115.2" xlink:href="#m1f0e9e28a6" y="394.333062"/>
      </g>
     </g>
    </g>
    <g id="ytick_15">
     <g id="line2d_21">
      <g>
       <use style="stroke:#000000;stroke-width:0.8;" x="115.2" xlink:href="#m1f0e9e28a6" y="344.064222"/>
      </g>
     </g>
    </g>
    <g id="ytick_16">
     <g id="line2d_22">
      <g>
       <use style="stroke:#000000;stroke-width:0.8;" x="115.2" xlink:href="#m1f0e9e28a6" y="318.538782"/>
      </g>
     </g>
    </g>
    <g id="ytick_17">
     <g id="line2d_23">
      <g>
       <use style="stroke:#000000;stroke-width:0.8;" x="115.2" xlink:href="#m1f0e9e28a6" y="300.428194"/>
      </g>
     </g>
    </g>
    <g id="ytick_18">
     <g id="line2d_24">
      <g>
       <use style="stroke:#000000;stroke-width:0.8;" x="115.2" xlink:href="#m1f0e9e28a6" y="286.38053"/>
      </g>
     </g>
    </g>
    <g id="ytick_19">
     <g id="line2d_25">
      <g>
       <use style="stroke:#000000;stroke-width:0.8;" x="115.2" xlink:href="#m1f0e9e28a6" y="274.902753"/>
      </g>
     </g>
    </g>
    <g id="ytick_20">
     <g id="line2d_26">
      <g>
       <use style="stroke:#000000;stroke-width:0.8;" x="115.2" xlink:href="#m1f0e9e28a6" y="265.198431"/>
      </g>
     </g>
    </g>
    <g id="ytick_21">
     <g id="line2d_27">
      <g>
       <use style="stroke:#000000;stroke-width:0.8;" x="115.2" xlink:href="#m1f0e9e28a6" y="256.792165"/>
      </g>
     </g>
    </g>
    <g id="ytick_22">
     <g id="line2d_28">
      <g>
       <use style="stroke:#000000;stroke-width:0.8;" x="115.2" xlink:href="#m1f0e9e28a6" y="249.377313"/>
      </g>
     </g>
    </g>
    <g id="ytick_23">
     <g id="line2d_29">
      <g>
       <use style="stroke:#000000;stroke-width:0.8;" x="115.2" xlink:href="#m1f0e9e28a6" y="199.108473"/>
      </g>
     </g>
    </g>
    <g id="ytick_24">
     <g id="line2d_30">
      <g>
       <use style="stroke:#000000;stroke-width:0.8;" x="115.2" xlink:href="#m1f0e9e28a6" y="173.583033"/>
      </g>
     </g>
    </g>
    <g id="ytick_25">
     <g id="line2d_31">
      <g>
       <use style="stroke:#000000;stroke-width:0.8;" x="115.2" xlink:href="#m1f0e9e28a6" y="155.472445"/>
      </g>
     </g>
    </g>
    <g id="ytick_26">
     <g id="line2d_32">
      <g>
       <use style="stroke:#000000;stroke-width:0.8;" x="115.2" xlink:href="#m1f0e9e28a6" y="141.424781"/>
      </g>
     </g>
    </g>
    <g id="ytick_27">
     <g id="line2d_33">
      <g>
       <use style="stroke:#000000;stroke-width:0.8;" x="115.2" xlink:href="#m1f0e9e28a6" y="129.947004"/>
      </g>
     </g>
    </g>
    <g id="ytick_28">
     <g id="line2d_34">
      <g>
       <use style="stroke:#000000;stroke-width:0.8;" x="115.2" xlink:href="#m1f0e9e28a6" y="120.242682"/>
      </g>
     </g>
    </g>
    <g id="ytick_29">
     <g id="line2d_35">
      <g>
       <use style="stroke:#000000;stroke-width:0.8;" x="115.2" xlink:href="#m1f0e9e28a6" y="111.836416"/>
      </g>
     </g>
    </g>
    <g id="ytick_30">
     <g id="line2d_36">
      <g>
       <use style="stroke:#000000;stroke-width:0.8;" x="115.2" xlink:href="#m1f0e9e28a6" y="104.421564"/>
      </g>
     </g>
    </g>
    <g id="text_12">
     <!-- $\vert\rho_{12}\vert$ -->
     <defs>
      <path d="M 21 76.421875 
L 21 -23.578125 
L 12.703125 -23.578125 
L 12.703125 76.421875 
z
" id="DejaVuSans-7c"/>
      <path d="M 18.796875 44.921875 
Q 22.703125 49.90625 30.953125 54.296875 
Q 34.1875 56 43.0625 56 
Q 53.03125 56 57.71875 48.09375 
Q 62.40625 40.1875 59.90625 27.296875 
Q 57.375 14.40625 49.609375 6.484375 
Q 41.84375 -1.421875 31.890625 -1.421875 
Q 25.875 -1.421875 22.015625 0.984375 
Q 18.171875 3.328125 16.3125 8.203125 
L 10.640625 -20.796875 
L 1.609375 -20.796875 
L 10.890625 26.8125 
Q 13.09375 38.09375 18.796875 44.921875 
z
M 50.59375 27.296875 
Q 52.484375 37.203125 49.515625 42.875 
Q 46.53125 48.484375 39.40625 48.484375 
Q 32.28125 48.484375 27.09375 42.875 
Q 21.921875 37.203125 20.015625 27.296875 
Q 18.0625 17.390625 21.046875 11.71875 
Q 24.03125 6.109375 31.15625 6.109375 
Q 38.28125 6.109375 43.453125 11.71875 
Q 48.640625 17.390625 50.59375 27.296875 
z
" id="DejaVuSans-Oblique-3c1"/>
     </defs>
     <g transform="translate(54.676 334.84)rotate(-90)scale(0.176 -0.176)">
      <use transform="translate(0 0.578125)" xlink:href="#DejaVuSans-7c"/>
      <use transform="translate(33.691406 0.578125)" xlink:href="#DejaVuSans-Oblique-3c1"/>
      <use transform="translate(97.167969 -15.828125)scale(0.7)" xlink:href="#DejaVuSans-31"/>
      <use transform="translate(141.704102 -15.828125)scale(0.7)" xlink:href="#DejaVuSans-32"/>
      <use transform="translate(188.974609 0.578125)" xlink:href="#DejaVuSans-7c"/>
     </g>
    </g>
   </g>
   <g id="line2d_37">
    <path clip-path="url(#pfde40b4119)" d="M 147.665455 532.656 
L 160.91666 350.918864 
L 174.167866 308.467308 
L 187.419072 282.962667 
L 200.670278 264.593017 
L 213.921484 250.187784 
L 227.17269 238.314915 
L 240.423896 228.204671 
L 253.675102 219.395195 
L 266.926308 211.587253 
L 280.177514 204.576409 
L 293.42872 198.21628 
L 306.679926 192.399276 
L 319.931132 187.043104 
L 333.182338 182.084313 
L 346.433544 177.472182 
L 359.68475 173.166107 
L 372.935955 169.132947 
L 386.187161 165.345342 
L 399.438367 161.780282 
L 412.689573 158.418578 
L 425.940779 155.243802 
L 439.191985 152.24178 
L 452.443191 149.400512 
L 465.694397 146.709246 
L 478.945603 144.158794 
L 492.196809 141.741014 
L 505.448015 139.448625 
L 518.699221 137.275282 
L 531.950427 135.215242 
L 545.201633 133.263214 
L 558.452839 131.414356 
L 571.704045 129.664491 
L 584.95525 128.009568 
L 598.206456 126.445651 
L 611.457662 124.969435 
L 624.708868 123.57731 
L 637.960074 122.26623 
L 651.21128 121.032808 
L 664.462486 119.874164 
L 677.713692 118.787178 
L 690.964898 117.768818 
L 704.216104 116.815865 
L 717.46731 115.925387 
L 730.718516 115.09406 
L 743.969722 114.318772 
L 757.220928 113.59625 
L 770.472134 112.922881 
L 783.72334 112.295307 
L 796.974545 111.710002 
" style="fill:none;stroke:#ff0000;stroke-linecap:square;stroke-width:2.8;"/>
    <defs>
     <path d="M 0 2.8 
C 0.742569 2.8 1.454824 2.504974 1.979899 1.979899 
C 2.504974 1.454824 2.8 0.742569 2.8 0 
C 2.8 -0.742569 2.504974 -1.454824 1.979899 -1.979899 
C 1.454824 -2.504974 0.742569 -2.8 0 -2.8 
C -0.742569 -2.8 -1.454824 -2.504974 -1.979899 -1.979899 
C -2.504974 -1.454824 -2.8 -0.742569 -2.8 0 
C -2.8 0.742569 -2.504974 1.454824 -1.979899 1.979899 
C -1.454824 2.504974 -0.742569 2.8 0 2.8 
z
" id="m18c4807bea"/>
    </defs>
    <g clip-path="url(#pfde40b4119)">
     <use style="fill:#ff0000;" x="147.665455" xlink:href="#m18c4807bea" y="532.656"/>
     <use style="fill:#ff0000;" x="160.91666" xlink:href="#m18c4807bea" y="350.918864"/>
     <use style="fill:#ff0000;" x="174.167866" xlink:href="#m18c4807bea" y="308.467308"/>
     <use style="fill:#ff0000;" x="187.419072" xlink:href="#m18c4807bea" y="282.962667"/>
     <use style="fill:#ff0000;" x="200.670278" xlink:href="#m18c4807bea" y="264.593017"/>
     <use style="fill:#ff0000;" x="213.921484" xlink:href="#m18c4807bea" y="250.187784"/>
     <use style="fill:#ff0000;" x="227.17269" xlink:href="#m18c4807bea" y="238.314915"/>
     <use style="fill:#ff0000;" x="240.423896" xlink:href="#m18c4807bea" y="228.204671"/>
     <use style="fill:#ff0000;" x="253.675102" xlink:href="#m18c4807bea" y="219.395195"/>
     <use style="fill:#ff0000;" x="266.926308" xlink:href="#m18c4807bea" y="211.587253"/>
     <use style="fill:#ff0000;" x="280.177514" xlink:href="#m18c4807bea" y="204.576409"/>
     <use style="fill:#ff0000;" x="293.42872" xlink:href="#m18c4807bea" y="198.21628"/>
     <use style="fill:#ff0000;" x="306.679926" xlink:href="#m18c4807bea" y="192.399276"/>
     <use style="fill:#ff0000;" x="319.931132" xlink:href="#m18c4807bea" y="187.043104"/>
     <use style="fill:#ff0000;" x="333.182338" xlink:href="#m18c4807bea" y="182.084313"/>
     <use style="fill:#ff0000;" x="346.433544" xlink:href="#m18c4807bea" y="177.472182"/>
     <use style="fill:#ff0000;" x="359.68475" xlink:href="#m18c4807bea" y="173.166107"/>
     <use style="fill:#ff0000;" x="372.935955" xlink:href="#m18c4807bea" y="169.132947"/>
     <use style="fill:#ff0000;" x="386.187161" xlink:href="#m18c4807bea" y="165.345342"/>
     <use style="fill:#ff0000;" x="399.438367" xlink:href="#m18c4807bea" y="161.780282"/>
     <use style="fill:#ff0000;" x="412.689573" xlink:href="#m18c4807bea" y="158.418578"/>
     <use style="fill:#ff0000;" x="425.940779" xlink:href="#m18c4807bea" y="155.243802"/>
     <use style="fill:#ff0000;" x="439.191985" xlink:href="#m18c4807bea" y="152.24178"/>
     <use style="fill:#ff0000;" x="452.443191" xlink:href="#m18c4807bea" y="149.400512"/>
     <use style="fill:#ff0000;" x="465.694397" xlink:href="#m18c4807bea" y="146.709246"/>
     <use style="fill:#ff0000;" x="478.945603" xlink:href="#m18c4807bea" y="144.158794"/>
     <use style="fill:#ff0000;" x="492.196809" xlink:href="#m18c4807bea" y="141.741014"/>
     <use style="fill:#ff0000;" x="505.448015" xlink:href="#m18c4807bea" y="139.448625"/>
     <use style="fill:#ff0000;" x="518.699221" xlink:href="#m18c4807bea" y="137.275282"/>
     <use style="fill:#ff0000;" x="531.950427" xlink:href="#m18c4807bea" y="135.215242"/>
     <use style="fill:#ff0000;" x="545.201633" xlink:href="#m18c4807bea" y="133.263214"/>
     <use style="fill:#ff0000;" x="558.452839" xlink:href="#m18c4807bea" y="131.414356"/>
     <use style="fill:#ff0000;" x="571.704045" xlink:href="#m18c4807bea" y="129.664491"/>
     <use style="fill:#ff0000;" x="584.95525" xlink:href="#m18c4807bea" y="128.009568"/>
     <use style="fill:#ff0000;" x="598.206456" xlink:href="#m18c4807bea" y="126.445651"/>
     <use style="fill:#ff0000;" x="611.457662" xlink:href="#m18c4807bea" y="124.969435"/>
     <use style="fill:#ff0000;" x="624.708868" xlink:href="#m18c4807bea" y="123.57731"/>
     <use style="fill:#ff0000;" x="637.960074" xlink:href="#m18c4807bea" y="122.26623"/>
     <use style="fill:#ff0000;" x="651.21128" xlink:href="#m18c4807bea" y="121.032808"/>
     <use style="fill:#ff0000;" x="664.462486" xlink:href="#m18c4807bea" y="119.874164"/>
     <use style="fill:#ff0000;" x="677.713692" xlink:href="#m18c4807bea" y="118.787178"/>
     <use style="fill:#ff0000;" x="690.964898" xlink:href="#m18c4807bea" y="117.768818"/>
     <use style="fill:#ff0000;" x="704.216104" xlink:href="#m18c4807bea" y="116.815865"/>
     <use style="fill:#ff0000;" x="717.46731" xlink:href="#m18c4807bea" y="115.925387"/>
     <use style="fill:#ff0000;" x="730.718516" xlink:href="#m18c4807bea" y="115.09406"/>
     <use style="fill:#ff0000;" x="743.969722" xlink:href="#m18c4807bea" y="114.318772"/>
     <use style="fill:#ff0000;" x="757.220928" xlink:href="#m18c4807bea" y="113.59625"/>
     <use style="fill:#ff0000;" x="770.472134" xlink:href="#m18c4807bea" y="112.922881"/>
     <use style="fill:#ff0000;" x="783.72334" xlink:href="#m18c4807bea" y="112.295307"/>
     <use style="fill:#ff0000;" x="796.974545" xlink:href="#m18c4807bea" y="111.710002"/>
    </g>
   </g>
   <g id="line2d_38">
    <path clip-path="url(#pfde40b4119)" d="M 796.974545 111.139483 
L 783.72334 106.498872 
L 770.472134 103.020971 
L 757.220928 100.539928 
L 743.969722 98.915282 
L 730.718516 98.02804 
L 717.46731 97.776 
L 704.216104 98.068868 
L 690.964898 98.825274 
L 677.713692 99.969366 
L 664.462486 101.428822 
L 651.21128 103.133209 
L 637.960074 105.013094 
L 624.708868 106.999388 
L 611.457662 109.02439 
L 598.206456 111.022491 
L 584.95525 112.932324 
L 571.704045 114.699446 
L 558.452839 116.278929 
L 545.201633 117.637381 
L 531.950427 118.755198 
L 518.699221 119.625941 
L 505.448015 120.256219 
L 492.196809 120.662857 
L 478.945603 120.870448 
L 465.694397 120.907952 
L 452.443191 120.806296 
L 439.191985 120.595669 
L 425.940779 120.304319 
L 412.689573 119.957103 
L 399.438367 119.575518 
L 386.187161 119.177245 
L 372.935955 118.776785 
L 359.68475 118.38512 
L 346.433544 118.011028 
L 333.182338 117.660428 
L 319.931132 117.337812 
L 306.679926 117.0459 
L 293.42872 116.786039 
L 280.177514 116.558731 
L 266.926308 116.363583 
L 253.675102 116.199418 
L 240.423896 116.064818 
L 227.17269 115.957416 
L 213.921484 115.874998 
L 200.670278 115.814607 
L 187.419072 115.773192 
L 174.167866 115.747604 
L 160.91666 115.734009 
L 147.665455 115.728783 
" style="fill:none;stroke:#000000;stroke-dasharray:10.36,4.48;stroke-dashoffset:0;stroke-width:2.8;"/>
    <defs>
     <path d="M -0 7.919596 
L 4.751758 0 
L 0 -7.919596 
L -4.751758 -0 
z
" id="m75ebf1cd07"/>
    </defs>
    <g clip-path="url(#pfde40b4119)">
     <use x="796.974545" xlink:href="#m75ebf1cd07" y="111.139483"/>
     <use x="783.72334" xlink:href="#m75ebf1cd07" y="106.498872"/>
     <use x="770.472134" xlink:href="#m75ebf1cd07" y="103.020971"/>
     <use x="757.220928" xlink:href="#m75ebf1cd07" y="100.539928"/>
     <use x="743.969722" xlink:href="#m75ebf1cd07" y="98.915282"/>
     <use x="730.718516" xlink:href="#m75ebf1cd07" y="98.02804"/>
     <use x="717.46731" xlink:href="#m75ebf1cd07" y="97.776"/>
     <use x="704.216104" xlink:href="#m75ebf1cd07" y="98.068868"/>
     <use x="690.964898" xlink:href="#m75ebf1cd07" y="98.825274"/>
     <use x="677.713692" xlink:href="#m75ebf1cd07" y="99.969366"/>
     <use x="664.462486" xlink:href="#m75ebf1cd07" y="101.428822"/>
     <use x="651.21128" xlink:href="#m75ebf1cd07" y="103.133209"/>
     <use x="637.960074" xlink:href="#m75ebf1cd07" y="105.013094"/>
     <use x="624.708868" xlink:href="#m75ebf1cd07" y="106.999388"/>
     <use x="611.457662" xlink:href="#m75ebf1cd07" y="109.02439"/>
     <use x="598.206456" xlink:href="#m75ebf1cd07" y="111.022491"/>
     <use x="584.95525" xlink:href="#m75ebf1cd07" y="112.932324"/>
     <use x="571.704045" xlink:href="#m75ebf1cd07" y="114.699446"/>
     <use x="558.452839" xlink:href="#m75ebf1cd07" y="116.278929"/>
     <use x="545.201633" xlink:href="#m75ebf1cd07" y="117.637381"/>
     <use x="531.950427" xlink:href="#m75ebf1cd07" y="118.755198"/>
     <use x="518.699221" xlink:href="#m75ebf1cd07" y="119.625941"/>
     <use x="505.448015" xlink:href="#m75ebf1cd07" y="120.256219"/>
     <use x="492.196809" xlink:href="#m75ebf1cd07" y="120.662857"/>
     <use x="478.945603" xlink:href="#m75ebf1cd07" y="120.870448"/>
     <use x="465.694397" xlink:href="#m75ebf1cd07" y="120.907952"/>
     <use x="452.443191" xlink:href="#m75ebf1cd07" y="120.806296"/>
     <use x="439.191985" xlink:href="#m75ebf1cd07" y="120.595669"/>
     <use x="425.940779" xlink:href="#m75ebf1cd07" y="120.304319"/>
     <use x="412.689573" xlink:href="#m75ebf1cd07" y="119.957103"/>
     <use x="399.438367" xlink:href="#m75ebf1cd07" y="119.575518"/>
     <use x="386.187161" xlink:href="#m75ebf1cd07" y="119.177245"/>
     <use x="372.935955" xlink:href="#m75ebf1cd07" y="118.776785"/>
     <use x="359.68475" xlink:href="#m75ebf1cd07" y="118.38512"/>
     <use x="346.433544" xlink:href="#m75ebf1cd07" y="118.011028"/>
     <use x="333.182338" xlink:href="#m75ebf1cd07" y="117.660428"/>
     <use x="319.931132" xlink:href="#m75ebf1cd07" y="117.337812"/>
     <use x="306.679926" xlink:href="#m75ebf1cd07" y="117.0459"/>
     <use x="293.42872" xlink:href="#m75ebf1cd07" y="116.786039"/>
     <use x="280.177514" xlink:href="#m75ebf1cd07" y="116.558731"/>
     <use x="266.926308" xlink:href="#m75ebf1cd07" y="116.363583"/>
     <use x="253.675102" xlink:href="#m75ebf1cd07" y="116.199418"/>
     <use x="240.423896" xlink:href="#m75ebf1cd07" y="116.064818"/>
     <use x="227.17269" xlink:href="#m75ebf1cd07" y="115.957416"/>
     <use x="213.921484" xlink:href="#m75ebf1cd07" y="115.874998"/>
     <use x="200.670278" xlink:href="#m75ebf1cd07" y="115.814607"/>
     <use x="187.419072" xlink:href="#m75ebf1cd07" y="115.773192"/>
     <use x="174.167866" xlink:href="#m75ebf1cd07" y="115.747604"/>
     <use x="160.91666" xlink:href="#m75ebf1cd07" y="115.734009"/>
     <use x="147.665455" xlink:href="#m75ebf1cd07" y="115.728783"/>
    </g>
   </g>
   <g id="patch_3">
    <path d="M 115.2 554.4 
L 115.2 76.032 
" style="fill:none;stroke:#000000;stroke-linecap:square;stroke-linejoin:miter;stroke-width:0.8;"/>
   </g>
   <g id="patch_4">
    <path d="M 829.44 554.4 
L 829.44 76.032 
" style="fill:none;stroke:#000000;stroke-linecap:square;stroke-linejoin:miter;stroke-width:0.8;"/>
   </g>
   <g id="patch_5">
    <path d="M 115.2 554.4 
L 829.44 554.4 
" style="fill:none;stroke:#000000;stroke-linecap:square;stroke-linejoin:miter;stroke-width:0.8;"/>
   </g>
   <g id="patch_6">
    <path d="M 115.2 76.032 
L 829.44 76.032 
" style="fill:none;stroke:#000000;stroke-linecap:square;stroke-linejoin:miter;stroke-width:0.8;"/>
   </g>
   <g id="text_13">
    <!-- $\theta_v=0$, $\mu=4$, $R=0.1$, IH -->
    <defs>
     <path d="M 45.515625 34.671875 
L 14.453125 34.671875 
Q 12.359375 20.0625 14.5 13.875 
Q 17.1875 6.25 24.46875 6.25 
Q 31.78125 6.25 37.359375 13.921875 
Q 42.234375 20.65625 45.515625 34.671875 
z
M 47.015625 42.96875 
Q 48.34375 56.84375 46.625 61.71875 
Q 43.953125 69.4375 36.765625 69.4375 
Q 29.296875 69.4375 23.828125 61.8125 
Q 19.53125 55.671875 16.15625 42.96875 
z
M 38.1875 76.765625 
Q 49.90625 76.765625 54.59375 66.40625 
Q 59.28125 56.109375 55.71875 37.84375 
Q 52.203125 19.625 43.453125 9.28125 
Q 34.765625 -1.125 23.046875 -1.125 
Q 11.28125 -1.125 6.640625 9.28125 
Q 2 19.625 5.515625 37.84375 
Q 9.078125 56.109375 17.71875 66.40625 
Q 26.421875 76.765625 38.1875 76.765625 
z
" id="DejaVuSans-Oblique-3b8"/>
     <path d="M 7.171875 54.6875 
L 16.703125 54.6875 
L 24.703125 8.203125 
L 50.875 54.6875 
L 60.40625 54.6875 
L 29.296875 0 
L 17.1875 0 
z
" id="DejaVuSans-Oblique-76"/>
     <path d="M 10.59375 45.40625 
L 73.1875 45.40625 
L 73.1875 37.203125 
L 10.59375 37.203125 
z
M 10.59375 25.484375 
L 73.1875 25.484375 
L 73.1875 17.1875 
L 10.59375 17.1875 
z
" id="DejaVuSans-3d"/>
     <path d="M 11.71875 12.40625 
L 22.015625 12.40625 
L 22.015625 4 
L 14.015625 -11.625 
L 7.71875 -11.625 
L 11.71875 4 
z
" id="DejaVuSans-2c"/>
     <path id="DejaVuSans-20"/>
     <path d="M -1.3125 -20.796875 
L 13.375 54.6875 
L 22.40625 54.6875 
L 15.765625 20.65625 
Q 15.578125 19.625 15.421875 18.359375 
Q 15.28125 17.09375 15.28125 15.828125 
Q 15.28125 11.28125 18.140625 8.828125 
Q 21 6.390625 26.3125 6.390625 
Q 33.546875 6.390625 37.984375 10.484375 
Q 42.4375 14.59375 44 22.796875 
L 50.203125 54.6875 
L 59.1875 54.6875 
L 51.03125 12.640625 
Q 50.828125 11.71875 50.75 11.03125 
Q 50.6875 10.359375 50.6875 9.8125 
Q 50.6875 8.296875 51.296875 7.59375 
Q 51.90625 6.890625 53.21875 6.890625 
Q 53.71875 6.890625 54.5625 7.125 
Q 55.421875 7.375 56.984375 8.015625 
L 55.609375 0.78125 
Q 53.46875 -0.296875 51.515625 -0.859375 
Q 49.5625 -1.421875 47.703125 -1.421875 
Q 44.484375 -1.421875 42.65625 0.625 
Q 40.828125 2.6875 40.828125 6.296875 
Q 38.09375 2.390625 34.296875 0.484375 
Q 30.515625 -1.421875 25.390625 -1.421875 
Q 20.84375 -1.421875 17.453125 0.671875 
Q 14.0625 2.78125 12.984375 6.203125 
L 7.71875 -20.796875 
z
" id="DejaVuSans-Oblique-3bc"/>
     <path d="M 25.203125 64.796875 
L 20.21875 38.921875 
L 32.90625 38.921875 
Q 40.375 38.921875 44.984375 43.046875 
Q 49.609375 47.171875 49.609375 53.8125 
Q 49.609375 59.125 46.5 61.953125 
Q 43.40625 64.796875 37.59375 64.796875 
z
M 43.3125 35.015625 
Q 46.4375 34.28125 48.515625 31.390625 
Q 50.59375 28.515625 53.328125 19.921875 
L 59.515625 0 
L 49.125 0 
L 43.40625 18.703125 
Q 41.21875 25.921875 38.328125 28.359375 
Q 35.453125 30.8125 29.5 30.8125 
L 18.609375 30.8125 
L 12.59375 0 
L 2.6875 0 
L 16.890625 72.90625 
L 39.109375 72.90625 
Q 49.21875 72.90625 54.609375 68.328125 
Q 60.015625 63.765625 60.015625 55.171875 
Q 60.015625 47.5625 55.421875 41.984375 
Q 50.828125 36.421875 43.3125 35.015625 
z
" id="DejaVuSans-Oblique-52"/>
     <path d="M 9.8125 72.90625 
L 19.671875 72.90625 
L 19.671875 0 
L 9.8125 0 
z
" id="DejaVuSans-49"/>
     <path d="M 9.8125 72.90625 
L 19.671875 72.90625 
L 19.671875 43.015625 
L 55.515625 43.015625 
L 55.515625 72.90625 
L 65.375 72.90625 
L 65.375 0 
L 55.515625 0 
L 55.515625 34.71875 
L 19.671875 34.71875 
L 19.671875 0 
L 9.8125 0 
z
" id="DejaVuSans-48"/>
    </defs>
    <g transform="translate(358.176 70.032)scale(0.192 -0.192)">
     <use transform="translate(0 0.234375)" xlink:href="#DejaVuSans-Oblique-3b8"/>
     <use transform="translate(61.181641 -16.171875)scale(0.7)" xlink:href="#DejaVuSans-Oblique-76"/>
     <use transform="translate(124.824219 0.234375)" xlink:href="#DejaVuSans-3d"/>
     <use transform="translate(228.095703 0.234375)" xlink:href="#DejaVuSans-30"/>
     <use transform="translate(291.71875 0.234375)" xlink:href="#DejaVuSans-2c"/>
     <use transform="translate(323.505859 0.234375)" xlink:href="#DejaVuSans-20"/>
     <use transform="translate(355.292969 0.234375)" xlink:href="#DejaVuSans-Oblique-3bc"/>
     <use transform="translate(438.398438 0.234375)" xlink:href="#DejaVuSans-3d"/>
     <use transform="translate(541.669922 0.234375)" xlink:href="#DejaVuSans-34"/>
     <use transform="translate(605.292969 0.234375)" xlink:href="#DejaVuSans-2c"/>
     <use transform="translate(637.080078 0.234375)" xlink:href="#DejaVuSans-20"/>
     <use transform="translate(668.867188 0.234375)" xlink:href="#DejaVuSans-Oblique-52"/>
     <use transform="translate(757.832031 0.234375)" xlink:href="#DejaVuSans-3d"/>
     <use transform="translate(861.103516 0.234375)" xlink:href="#DejaVuSans-30"/>
     <use transform="translate(924.726562 0.234375)" xlink:href="#DejaVuSans-2e"/>
     <use transform="translate(956.513672 0.234375)" xlink:href="#DejaVuSans-31"/>
     <use transform="translate(1020.136719 0.234375)" xlink:href="#DejaVuSans-2c"/>
     <use transform="translate(1051.923828 0.234375)" xlink:href="#DejaVuSans-20"/>
     <use transform="translate(1083.710938 0.234375)" xlink:href="#DejaVuSans-49"/>
     <use transform="translate(1113.203125 0.234375)" xlink:href="#DejaVuSans-48"/>
    </g>
   </g>
   <g id="legend_1">
    <g id="patch_7">
     <path d="M 688.5725 546.4 
L 818.24 546.4 
Q 821.44 546.4 821.44 543.2 
L 821.44 497.83 
Q 821.44 494.63 818.24 494.63 
L 688.5725 494.63 
Q 685.3725 494.63 685.3725 497.83 
L 685.3725 543.2 
Q 685.3725 546.4 688.5725 546.4 
z
" style="fill:#ffffff;opacity:0.8;stroke:#cccccc;stroke-linejoin:miter;stroke-width:0.48;"/>
    </g>
    <g id="line2d_39">
     <path d="M 691.7725 507.5875 
L 723.7725 507.5875 
" style="fill:none;stroke:#ff0000;stroke-linecap:square;stroke-width:2.8;"/>
    </g>
    <g id="line2d_40">
     <g>
      <use style="fill:#ff0000;" x="707.7725" xlink:href="#m18c4807bea" y="507.5875"/>
     </g>
    </g>
    <g id="text_14">
     <!-- Forward -->
     <defs>
      <path d="M 9.8125 72.90625 
L 51.703125 72.90625 
L 51.703125 64.59375 
L 19.671875 64.59375 
L 19.671875 43.109375 
L 48.578125 43.109375 
L 48.578125 34.8125 
L 19.671875 34.8125 
L 19.671875 0 
L 9.8125 0 
z
" id="DejaVuSans-46"/>
      <path d="M 30.609375 48.390625 
Q 23.390625 48.390625 19.1875 42.75 
Q 14.984375 37.109375 14.984375 27.296875 
Q 14.984375 17.484375 19.15625 11.84375 
Q 23.34375 6.203125 30.609375 6.203125 
Q 37.796875 6.203125 41.984375 11.859375 
Q 46.1875 17.53125 46.1875 27.296875 
Q 46.1875 37.015625 41.984375 42.703125 
Q 37.796875 48.390625 30.609375 48.390625 
z
M 30.609375 56 
Q 42.328125 56 49.015625 48.375 
Q 55.71875 40.765625 55.71875 27.296875 
Q 55.71875 13.875 49.015625 6.21875 
Q 42.328125 -1.421875 30.609375 -1.421875 
Q 18.84375 -1.421875 12.171875 6.21875 
Q 5.515625 13.875 5.515625 27.296875 
Q 5.515625 40.765625 12.171875 48.375 
Q 18.84375 56 30.609375 56 
z
" id="DejaVuSans-6f"/>
      <path d="M 41.109375 46.296875 
Q 39.59375 47.171875 37.8125 47.578125 
Q 36.03125 48 33.890625 48 
Q 26.265625 48 22.1875 43.046875 
Q 18.109375 38.09375 18.109375 28.8125 
L 18.109375 0 
L 9.078125 0 
L 9.078125 54.6875 
L 18.109375 54.6875 
L 18.109375 46.1875 
Q 20.953125 51.171875 25.484375 53.578125 
Q 30.03125 56 36.53125 56 
Q 37.453125 56 38.578125 55.875 
Q 39.703125 55.765625 41.0625 55.515625 
z
" id="DejaVuSans-72"/>
      <path d="M 4.203125 54.6875 
L 13.1875 54.6875 
L 24.421875 12.015625 
L 35.59375 54.6875 
L 46.1875 54.6875 
L 57.421875 12.015625 
L 68.609375 54.6875 
L 77.59375 54.6875 
L 63.28125 0 
L 52.6875 0 
L 40.921875 44.828125 
L 29.109375 0 
L 18.5 0 
z
" id="DejaVuSans-77"/>
      <path d="M 34.28125 27.484375 
Q 23.390625 27.484375 19.1875 25 
Q 14.984375 22.515625 14.984375 16.5 
Q 14.984375 11.71875 18.140625 8.90625 
Q 21.296875 6.109375 26.703125 6.109375 
Q 34.1875 6.109375 38.703125 11.40625 
Q 43.21875 16.703125 43.21875 25.484375 
L 43.21875 27.484375 
z
M 52.203125 31.203125 
L 52.203125 0 
L 43.21875 0 
L 43.21875 8.296875 
Q 40.140625 3.328125 35.546875 0.953125 
Q 30.953125 -1.421875 24.3125 -1.421875 
Q 15.921875 -1.421875 10.953125 3.296875 
Q 6 8.015625 6 15.921875 
Q 6 25.140625 12.171875 29.828125 
Q 18.359375 34.515625 30.609375 34.515625 
L 43.21875 34.515625 
L 43.21875 35.40625 
Q 43.21875 41.609375 39.140625 45 
Q 35.0625 48.390625 27.6875 48.390625 
Q 23 48.390625 18.546875 47.265625 
Q 14.109375 46.140625 10.015625 43.890625 
L 10.015625 52.203125 
Q 14.9375 54.109375 19.578125 55.046875 
Q 24.21875 56 28.609375 56 
Q 40.484375 56 46.34375 49.84375 
Q 52.203125 43.703125 52.203125 31.203125 
z
" id="DejaVuSans-61"/>
      <path d="M 45.40625 46.390625 
L 45.40625 75.984375 
L 54.390625 75.984375 
L 54.390625 0 
L 45.40625 0 
L 45.40625 8.203125 
Q 42.578125 3.328125 38.25 0.953125 
Q 33.9375 -1.421875 27.875 -1.421875 
Q 17.96875 -1.421875 11.734375 6.484375 
Q 5.515625 14.40625 5.515625 27.296875 
Q 5.515625 40.1875 11.734375 48.09375 
Q 17.96875 56 27.875 56 
Q 33.9375 56 38.25 53.625 
Q 42.578125 51.265625 45.40625 46.390625 
z
M 14.796875 27.296875 
Q 14.796875 17.390625 18.875 11.75 
Q 22.953125 6.109375 30.078125 6.109375 
Q 37.203125 6.109375 41.296875 11.75 
Q 45.40625 17.390625 45.40625 27.296875 
Q 45.40625 37.203125 41.296875 42.84375 
Q 37.203125 48.484375 30.078125 48.484375 
Q 22.953125 48.484375 18.875 42.84375 
Q 14.796875 37.203125 14.796875 27.296875 
z
" id="DejaVuSans-64"/>
     </defs>
     <g transform="translate(736.5725 513.1875)scale(0.16 -0.16)">
      <use xlink:href="#DejaVuSans-46"/>
      <use x="57.472656" xlink:href="#DejaVuSans-6f"/>
      <use x="118.654297" xlink:href="#DejaVuSans-72"/>
      <use x="159.767578" xlink:href="#DejaVuSans-77"/>
      <use x="241.554688" xlink:href="#DejaVuSans-61"/>
      <use x="302.833984" xlink:href="#DejaVuSans-72"/>
      <use x="343.931641" xlink:href="#DejaVuSans-64"/>
     </g>
    </g>
    <g id="line2d_41">
     <path d="M 691.7725 531.0725 
L 723.7725 531.0725 
" style="fill:none;stroke:#000000;stroke-dasharray:10.36,4.48;stroke-dashoffset:0;stroke-width:2.8;"/>
    </g>
    <g id="line2d_42">
     <g>
      <use x="707.7725" xlink:href="#m75ebf1cd07" y="531.0725"/>
     </g>
    </g>
    <g id="text_15">
     <!-- Backward -->
     <defs>
      <path d="M 19.671875 34.8125 
L 19.671875 8.109375 
L 35.5 8.109375 
Q 43.453125 8.109375 47.28125 11.40625 
Q 51.125 14.703125 51.125 21.484375 
Q 51.125 28.328125 47.28125 31.5625 
Q 43.453125 34.8125 35.5 34.8125 
z
M 19.671875 64.796875 
L 19.671875 42.828125 
L 34.28125 42.828125 
Q 41.5 42.828125 45.03125 45.53125 
Q 48.578125 48.25 48.578125 53.8125 
Q 48.578125 59.328125 45.03125 62.0625 
Q 41.5 64.796875 34.28125 64.796875 
z
M 9.8125 72.90625 
L 35.015625 72.90625 
Q 46.296875 72.90625 52.390625 68.21875 
Q 58.5 63.53125 58.5 54.890625 
Q 58.5 48.1875 55.375 44.234375 
Q 52.25 40.28125 46.1875 39.3125 
Q 53.46875 37.75 57.5 32.78125 
Q 61.53125 27.828125 61.53125 20.40625 
Q 61.53125 10.640625 54.890625 5.3125 
Q 48.25 0 35.984375 0 
L 9.8125 0 
z
" id="DejaVuSans-42"/>
      <path d="M 48.78125 52.59375 
L 48.78125 44.1875 
Q 44.96875 46.296875 41.140625 47.34375 
Q 37.3125 48.390625 33.40625 48.390625 
Q 24.65625 48.390625 19.8125 42.84375 
Q 14.984375 37.3125 14.984375 27.296875 
Q 14.984375 17.28125 19.8125 11.734375 
Q 24.65625 6.203125 33.40625 6.203125 
Q 37.3125 6.203125 41.140625 7.25 
Q 44.96875 8.296875 48.78125 10.40625 
L 48.78125 2.09375 
Q 45.015625 0.34375 40.984375 -0.53125 
Q 36.96875 -1.421875 32.421875 -1.421875 
Q 20.0625 -1.421875 12.78125 6.34375 
Q 5.515625 14.109375 5.515625 27.296875 
Q 5.515625 40.671875 12.859375 48.328125 
Q 20.21875 56 33.015625 56 
Q 37.15625 56 41.109375 55.140625 
Q 45.0625 54.296875 48.78125 52.59375 
z
" id="DejaVuSans-63"/>
      <path d="M 9.078125 75.984375 
L 18.109375 75.984375 
L 18.109375 31.109375 
L 44.921875 54.6875 
L 56.390625 54.6875 
L 27.390625 29.109375 
L 57.625 0 
L 45.90625 0 
L 18.109375 26.703125 
L 18.109375 0 
L 9.078125 0 
z
" id="DejaVuSans-6b"/>
     </defs>
     <g transform="translate(736.5725 536.6725)scale(0.16 -0.16)">
      <use xlink:href="#DejaVuSans-42"/>
      <use x="68.603516" xlink:href="#DejaVuSans-61"/>
      <use x="129.882812" xlink:href="#DejaVuSans-63"/>
      <use x="184.863281" xlink:href="#DejaVuSans-6b"/>
      <use x="242.773438" xlink:href="#DejaVuSans-77"/>
      <use x="324.560547" xlink:href="#DejaVuSans-61"/>
      <use x="385.839844" xlink:href="#DejaVuSans-72"/>
      <use x="426.9375" xlink:href="#DejaVuSans-64"/>
     </g>
    </g>
   </g>
  </g>
 </g>
 <defs>
  <clipPath id="pfde40b4119">
   <rect height="478.368" width="714.24" x="115.2" y="76.032"/>
  </clipPath>
 </defs>
</svg>
